<svg xmlns="http://www.w3.org/2000/svg" viewBox="0 0 38 27" style="enable-background:new 0 0 38 27" xml:space="preserve"><path d="M36.5 20c.9-1.7 1.4-3.6 1.4-5.6 0-3.1-1.2-5.9-3.4-8.1-2.2-2.2-5-3.4-8.1-3.4-2.8 0-5.4 1-7.4 2.8C16.9 4 14.3 3 11.6 3c-3.1 0-6 1.2-8.1 3.4-2.2 2.2-3.4 5-3.4 8.1 0 2 .5 3.9 1.4 5.6L0 26l5.9-1.5c1.7 1 3.7 1.5 5.6 1.5 2.8 0 5.4-1 7.4-2.8C21 25 23.6 26 26.3 26c2 0 3.9-.5 5.6-1.5L38 26l-1.5-6zM18 14.5c0-1.4.4-2.8 1-4 .6 1.2 1 2.5 1 4s-.4 2.8-1 4c-.6-1.2-1-2.6-1-4zM11.5 23C6.8 23 3 19.2 3 14.5S6.8 6 11.5 6c2.1 0 4 .8 5.5 2-1.3 1.9-2 4.1-2 6.5 0 2.4.7 4.6 2 6.5-1.5 1.2-3.4 2-5.5 2zm15 0c-2.1 0-4-.8-5.5-2 1.3-1.9 2-4.1 2-6.5 0-2.3-.7-4.6-2-6.5 1.5-1.3 3.4-2 5.5-2 4.7 0 8.5 3.8 8.5 8.5S31.2 23 26.5 23z"/></svg>