<?xml version="1.0" encoding="utf-8"?>
<!-- Generator: Adobe Illustrator 23.0.5, SVG Export Plug-In . SVG Version: 6.00 Build 0)  -->
<svg version="1.1" id="Layer_1" xmlns="http://www.w3.org/2000/svg" xmlns:xlink="http://www.w3.org/1999/xlink" x="0px" y="0px"
	 viewBox="0 0 25 25" style="enable-background:new 0 0 25 25;" xml:space="preserve">
<path d="M22.5,18c0.9-1.7,1.4-3.6,1.4-5.6c0-3.1-1.2-5.9-3.4-8.1S15.5,1,12.4,1s-5.9,1.2-8,3.4S1,9.4,1,12.5s1.2,5.9,3.4,8.1
	s5,3.4,8.1,3.4c2,0,3.9-0.5,5.6-1.5l0,0L24,24L22.5,18z M12.4,7.3c2.8,0,5.2,2.3,5.2,5.2s-2.3,5.2-5.2,5.2c-2.8,0-5.2-2.3-5.2-5.2
	C7.3,9.6,9.6,7.3,12.4,7.3z"/>
</svg>
