<svg xmlns="http://www.w3.org/2000/svg" viewBox="0 0 200 200" style="enable-background:new 0 0 200 200" xml:space="preserve"><path d="M100.2 1.4c-54.5 0-98.8 44.3-98.8 98.8S45.7 199 100.2 199s98.8-44.3 98.8-98.8-44.3-98.8-98.8-98.8zm0 194.5c-52.8 0-95.8-43-95.8-95.8s43-95.8 95.8-95.8 95.8 43 95.8 95.8c0 52.9-43 95.8-95.8 95.8z"/><path d="m139.6 111.1-1.2-.1c-4.8-.2-9.6.5-14.1 2.2-3.9 1.4-7.4 3.5-10.7 6.2-3.1 2.9-5.5 6.5-7 10.4-2.1 5.4-2.1 10.4-1.6 13.8-1.4 1.5-2.7 3.2-3.7 5-.4.7-.7 1.5-1 2.2-.3-.7-.6-1.4-1-2.1-1-1.8-2.2-3.5-3.7-5 .5-3.4.5-8.4-1.6-13.8-1.5-3.9-3.9-7.5-7.1-10.4-3.2-2.6-6.8-4.7-10.6-6.1-4.5-1.7-9.3-2.4-14.1-2.2l-1.2.1-.2 1.2c-.7 4.7-.4 9.6 1 14.1 1.1 3.9 3 7.4 5.5 10.6l.2.2c2.9 2.8 6.3 5 10 6.5 4.3 1.7 8.4 2.3 11.9 2.3 1.6 0 3-.1 4.2-.3 1.2 1.3 2.3 2.8 3.2 4.4 1 1.9 1.8 4 2.1 6.2V170h3v-13.8c.4-2.2 1.1-4.2 2.1-6.2.9-1.6 1.9-3.1 3.2-4.4 1.2.2 2.7.3 4.2.3 3.5 0 7.6-.5 11.9-2.3 3.7-1.5 7.1-3.7 10-6.5l.2-.2c2.5-3.2 4.3-6.8 5.5-10.6 1.3-4.5 1.7-9.4 1-14.1l-.4-1.1zm-61.2 30c-3.3-1.3-6.4-3.3-9-5.8-2.2-2.9-3.9-6.1-4.9-9.6-1.1-3.7-1.5-7.7-1.1-11.6 4 0 7.9.7 11.7 2.1 3.5 1.3 6.8 3.2 9.7 5.6 2.7 2.6 4.9 5.8 6.3 9.3 1.4 3.7 1.8 7.2 1.6 10l-14-13.1-2 2.2 13.9 12.9c-3.5.1-7.7-.2-12.2-2zm57.5-15.6c-1 3.5-2.7 6.7-4.9 9.6-2.6 2.5-5.7 4.4-9 5.8-4.5 1.8-8.7 2.2-12.1 2l13.9-12.9-2-2.2-14.1 13.1c-.1-2.8.2-6.3 1.6-10.1 1.3-3.5 3.5-6.7 6.2-9.2 2.9-2.4 6.2-4.3 9.8-5.6 3.7-1.4 7.6-2.1 11.5-2.1h.2c.4 4 0 7.9-1.1 11.6zM34.367 98.795l.013-3 131.7.57-.013 3zM69.3 72.4c3.4 0 6.4-2.1 7.7-4v.8c0 4.7-2.4 9.4-7.5 9.4-2.7 0-4.4-.9-5.9-2.5l-2.4 3.8c1.9 1.9 4.7 3.2 8.2 3.2 8.3 0 12.6-6.5 12.6-14.8 0-7.9-3.4-14.7-11.8-14.7-6.4 0-10.5 4.3-10.5 9.6.1 6.1 4.5 9.2 9.6 9.2zM70.6 58c4.4 0 6.1 3.6 6.4 6.7-1.5 2.1-3.8 3.4-6.3 3.4-3.1 0-5.9-1.6-5.9-5.1 0-2.3 2-5 5.8-5zM85.7 68.4c0 7.2 3.4 14.8 11.4 14.8s11.4-7.6 11.4-14.8c0-7.2-3.4-14.7-11.4-14.7-8-.1-11.4 7.5-11.4 14.7zm17.7 0c0 5.4-1.7 10.3-6.3 10.3-4.7 0-6.3-4.9-6.3-10.3 0-5.5 1.7-10.3 6.3-10.3 4.7 0 6.3 4.8 6.3 10.3zM118.7 82.6 137 54h-2.9l-18.3 28.6zM111.5 60.7c0 4 2.9 7.1 7.1 7.1 4.3 0 7.1-3.1 7.1-7.1 0-4-2.8-7.1-7.1-7.1-4.2 0-7.1 3.1-7.1 7.1zm11 0c0 2.5-1.6 4.2-3.8 4.2-2.2 0-3.8-1.7-3.8-4.2s1.6-4.3 3.8-4.3c2.2 0 3.8 1.8 3.8 4.3zM126.9 76.1c0 4 2.9 7.1 7.1 7.1 4.2 0 7.1-3.1 7.1-7.1 0-4-2.9-7.1-7.1-7.1-4.2 0-7.1 3-7.1 7.1zm10.9 0c0 2.5-1.6 4.2-3.8 4.2-2.2 0-3.8-1.7-3.8-4.2s1.6-4.3 3.8-4.3c2.3 0 3.8 1.7 3.8 4.3zM84.9 42.4c4.3 0 7.4-3.2 7.4-7.5s-3.1-7.5-7.4-7.5c-4.3 0-7.4 3.2-7.4 7.5s3.1 7.5 7.4 7.5zm0-12.8c2.9 0 4.8 2.2 4.8 5.2S87.8 40 84.9 40s-4.8-2.3-4.8-5.2c0-2.9 1.9-5.2 4.8-5.2zM99.9 42.1l4.3-10.5h-2.4l-3.1 7.9-3-7.9h-2.5l4.3 10.5zM110.5 42.4c1.7 0 3.2-.5 4.3-1.5l-1-1.5c-.8.8-2 1.2-3 1.2-2 0-3.2-1.3-3.3-2.9h8.1V37c0-3.3-2-5.7-5.2-5.7-3.1 0-5.3 2.5-5.3 5.5-.1 3.4 2.3 5.6 5.4 5.6zm-.2-9.2c2.1 0 2.9 1.5 3 2.8h-5.9c.1-1.3 1-2.8 2.9-2.8zM120.1 34.9c.5-.8 1.7-1.4 2.7-1.4.3 0 .5 0 .7.1v-2.3c-1.3 0-2.6.8-3.4 1.8v-1.5h-2.3v10.5h2.3v-7.2z"/></svg>