<svg xmlns="http://www.w3.org/2000/svg" viewBox="0 0 25 25" style="enable-background:new 0 0 25 25" xml:space="preserve"><path d="M23 16.1c-.5-.4-1.1-.8-1.7-1.4-1-.9-1.8-1.6-2.1-1.9-2-2-3.5-3.5-4-5.7-.2-1-.1-2.1.2-3.3l-1.6-.4c-.4 1.5-.4 2.9-.1 4.2.5 2.6 2.3 4.4 4.3 6.4.3.3 1.1 1.1 2.2 2 .7.6 1.3 1 1.7 1.4.1.1.3.3.3.5 0 .3-.5.7-1.4.7H18c-1.6-.1-3.2-.2-4.8-.4-.2 0-.4-.1-.6-.2-.5-.3-.7-.7-1.2-1.5-.1-.3-.3-.5-.5-.8-.5-.8-1.1-1.5-1.8-2.2l-.1-.2c-.6-.4-1.1-.7-1.7-.9-.5-.2-.9-.3-1.3-.4-.5-.1-.9-.2-1.3-.5-.3-.2-.5-.4-.7-.6-.1-.3-.2-.6-.2-.9 0-.6.2-1.1.3-1.3.4-.6.7-1 .9-1.3l.5-.6c.5-.7.7-1 1-1.6.2-.6.4-1.2.5-1.7V1H5.3v2.3c-.1.4-.2.7-.3 1.1-.2.4-.4.7-.9 1.3l-.4.6c-.2.3-.6.8-1 1.4-.3.5-.6 1.3-.6 2.3 0 .6.2 1.2.4 1.8l.2.2c.3.4.7.7 1.2 1 .6.4 1.2.6 1.7.7.3.1.7.2 1.1.4.5.2.9.4 1.4.7.6.6 1.1 1.2 1.5 1.8.2.3.3.5.4.7.4.8.9 1.6 1.8 2.1.3.2.7.3 1.1.4 1.6.2 3.3.4 5 .5h2.9c1.6.1 3-.9 3.1-2.2 0-1-.6-1.7-.9-2z"/><path d="M16.3 23.2c-1.4 0-3-.1-4.7-1.2-.3-.2-.6-.4-.9-.7-.4-.3-.8-.7-1.3-1.3-.9-.9-1.8-1.9-2.9-2.7-1.2-.9-2.7-1.5-4.3-1.8l-.4 1.7c1.4.3 2.6.8 3.7 1.6 1 .7 1.8 1.6 2.7 2.5.5.5.9 1 1.2 1.3l.1.1 1.2.9c2.1 1.3 4.2 1.4 5.6 1.4h.6c1.9 0 3.7-.3 5.5-.9l-.5-1.6c-1.9.5-3.8.8-5.6.7z"/></svg>