<svg xmlns="http://www.w3.org/2000/svg" viewBox="0 0 25 25" style="enable-background:new 0 0 25 25" xml:space="preserve"><path d="M9.1 14.8c.3.4.7.8 1.2 1 .5.3 1.1.5 1.8.5 1 0 1.9-.4 2.6-1.1.7-.7 1.1-1.6 1.1-2.6 0-1.7-2.5-5.5-2.9-6.2l-.7-1-.7 1c-.5.7-3 4.4-3 6.2-.1.7.1 1.5.6 2.2zm1-2.3c0-.7 1-2.6 2-4.1 1 1.6 2 3.4 2 4.2 0 .5-.2 1-.6 1.4-.4.4-.9.6-1.4.6-.3 0-.7-.1-.9-.2-.2-.1-.5-.3-.6-.5-.4-.5-.5-.9-.5-1.4z"/><path d="m14.3 23.2 5.9-4.5-.1 1.1 1.4.1.3-3.2v-.5l-3.7-.3-.1 1.4 1.2.1-6 4.5-7.8-5.7-1 1.3 7.7 5.6H.3v1.7l24.5.1v-1.7zM5.3 9.3c.4.2.7.2 1.1.3 1.3 0 2.3-1 2.3-2.3 0-1-1.3-3-1.7-3.6l-.5-1-.7.9c-.4.6-1.7 2.6-1.7 3.6 0 .5.2 1 .5 1.4.2.3.4.5.7.7zm1.1-3.8c.5.8.9 1.5.9 1.7 0 .2-.1.4-.2.6-.2.2-.4.3-.7.3-.1 0-.2-.1-.4-.1-.1-.1-.2-.2-.2-.3-.1-.1-.2-.3-.2-.5s.4-.9.8-1.7zM18.9 11.8c.3.2.7.3 1.1.3.6 0 1.1-.2 1.6-.6.4-.4.7-1 .7-1.6 0-1-1.3-3-1.7-3.5l-.6-.9-.5.8c-.4.6-1.7 2.5-1.7 3.5 0 .5.2 1 .4 1.3.2.3.4.5.7.7zm.1-2c0-.3.4-1.1.9-2 .5.8.9 1.7.9 2 0 .2-.1.5-.3.7-.2.2-.4.3-.6.3-.2 0-.3 0-.4-.1l-.3-.3c-.1-.2-.2-.4-.2-.6z"/></svg>