<svg xmlns="http://www.w3.org/2000/svg" viewBox="0 0 25 25" style="enable-background:new 0 0 25 25" xml:space="preserve"><path d="M22.8 4.1v-.5L13.3.5c-.3-.1-.5-.2-.8-.3-.3.1-.5.2-.8.3L2.2 3.6v.5c-.3 3-.3 10.6 4.9 16.5 1.3 1.5 2.8 2.8 4.6 3.8.3.1.6.2.8.4.3-.1.5-.2.8-.4 1.7-1 3.3-2.3 4.6-3.8 5.2-5.9 5.2-13.5 4.9-16.5zm-6.1 15.5c-1.2 1.3-2.6 2.5-4.1 3.5-1.6-1-3-2.1-4.1-3.5C3.8 14.4 3.6 7.9 3.8 4.8L12.5 2l8.7 2.8c.2 3.1 0 9.6-4.5 14.8z"/><path d="M12.6 8.7c-1.3 0-2.4 1.1-2.4 2.4 0 1.3 1.1 2.4 2.4 2.4s2.4-1.1 2.4-2.4c0-1.3-1.1-2.4-2.4-2.4zM12.8 6.8c.7 0 1.2-.6 1.2-1.2 0-.7-.6-1.2-1.2-1.2-.7 0-1.2.6-1.2 1.2-.1.7.5 1.2 1.2 1.2zM16.6 8.5c.7 0 1.2-.5 1.2-1.2s-.5-1.2-1.2-1.2-1.2.5-1.2 1.2.5 1.2 1.2 1.2z"/><circle cx="8.7" cy="7.4" r=".8"/><path d="M7 10.4c-.5 0-.8.4-.8.8 0 .5.4.8.8.8s.8-.4.8-.8c.1-.4-.3-.8-.8-.8zM8.6 14.2c-.5 0-.9.4-.9.9s.4.9.9.9.9-.4.9-.9-.4-.9-.9-.9zM12.6 15.9c-.5 0-1 .4-1 1s.4 1 1 1c.5 0 1-.4 1-1s-.5-1-1-1zM16.6 14.1c-.6 0-1.1.5-1.1 1.1s.5 1.1 1.1 1.1 1.1-.5 1.1-1.1-.6-1.1-1.1-1.1zM18.3 10.1c-.6 0-1.1.5-1.1 1.1s.5 1.1 1.1 1.1c.6 0 1.1-.5 1.1-1.1s-.5-1.1-1.1-1.1z"/></svg>