<svg xmlns="http://www.w3.org/2000/svg" viewBox="0 0 25 25" style="enable-background:new 0 0 25 25" xml:space="preserve"><path d="M9.6 15.9c.8.4 1.7.7 2.6.7 3 0 5.5-2.5 5.5-5.5 0-2.8-4.3-9.2-4.8-9.9l-.7-1-.7 1c-.4.7-4.7 7.1-4.8 9.8 0 1.2.4 2.4 1.1 3.3.5.7 1.1 1.2 1.8 1.6zm2.7-12.7c1.7 2.6 3.8 6.4 3.8 7.9 0 2.1-1.7 3.8-3.8 3.8-.6 0-1.3-.2-1.8-.5s-.9-.6-1.2-1.1c-.5-.7-.8-1.5-.8-2.3 0-1.4 2.1-5.2 3.8-7.8z"/><path d="m14.3 23.2 5.9-4.5-.1 1.1 1.4.1.3-3.2v-.5l-3.7-.3-.1 1.4 1.2.1-6 4.5-7.8-5.7-1 1.3 7.7 5.6H.3v1.7l24.5.1v-1.7z"/></svg>