<svg xmlns="http://www.w3.org/2000/svg" xml:space="preserve" style="enable-background:new 0 0 30 30.3" viewBox="0 0 30 30.3"><path d="m27.3 13.1-4.6 2 .1.1 1.5 3.5 1.4-.6-1-2.3 1.8-.8 1.6 4.3-.3 1.5-.4.6-6.8.2v-4c-2.1 2-4.1 3.9-6.2 5.9l6.1 6.2v-3.6h5.4l3.5-4.7.4-2.2-2.5-6.1zM25 24.7h-6.1v1.4l-2.4-2.5 2.6-2.4v2.1l7.2-.3-1.3 1.7zM12.3 22.3l-3.9-.1v1.5h2.5v1.9l-4.6-.3-1.3-.7-.4-.6 2.6-6.3c1.2.6 2.5 1.1 3.7 1.7-.9-2.9-1.9-5.5-2.8-8.2l-8.1 3 3.3 1.5L1 20.5l2.8 5.1 1.9 1.3 6.6.4.1-5h-.1zm-8.6-.1-1-1.8 2.5-5.6-1.3-.6L7.2 13l1.2 3.3-1.9-.9-2.8 6.8zM11.3 7.6l-1.6-1 2.6-3.8 1.4-.6h.7l4.1 5.5c-1.1.8-2.2 1.5-3.3 2.3l8.4 1.8 1.6-8.5-2.9 2L19.2.9 13.4.7l-2.1 1L7.6 7l4.2 2.6.1-.1 2-3.3-1.3-.8-1.3 2.2zm7.1-5.4 3.5 5 1.1-.7-.6 3.4-3.5-.7L20.6 8l-4.3-5.8h2.1z"/></svg>