<svg xmlns="http://www.w3.org/2000/svg" xml:space="preserve" style="enable-background:new 0 0 30 30" viewBox="0 0 30 30"><path d="M14.6 18.9h1.2V15l3.3-1.9-.6-1.1-3.4 2-3.4-2-.6 1.1 3.5 1.9zM16.4 27.1v-4.7h-1.2v4.7l-3-1.7-.6 1c1.4.8 2.8 1.6 4.3 2.4 1.4-.8 2.8-1.6 4.3-2.4l-.6-1-3.2 1.7zM14.4 2.1v4.7h1.2V2.1l3 1.7.6-1C17.8 2 16.4 1.2 14.9.4c-1.4.8-2.8 1.6-4.3 2.4l.6 1 3.2-1.7zM22.3 10.6l.3.5 4.1-2.4.1 3.5H28c0-1.6-.1-3.3-.1-4.9-1.4-.8-2.8-1.7-4.2-2.5l-.6 1 3 1.8-4.1 2.5.3.5zM6.6 5.8l-.6-1c-1.4.8-2.8 1.7-4.1 2.6 0 1.6.1 3.3.1 4.9h1.2l-.1-3.5L7.3 11l.3-.5.3-.5-4.2-2.4 2.9-1.8zM26.7 20.1l-4.1-2.4-.3.5-.3.6 4.1 2.4-3 1.8.6 1c1.4-.8 2.8-1.7 4.2-2.5 0-1.6.1-3.3.1-4.9h-1.2l-.1 3.5zM7.5 18.3l-.3-.5-4.1 2.4-.1-3.6H1.8c0 1.6.1 3.3.1 4.9 1.4.8 2.8 1.7 4.2 2.5l.6-1-3-1.8 4.1-2.4-.3-.5z"/></svg>