<?xml version="1.0" encoding="utf-8"?>
<!-- Generator: Adobe Illustrator 23.0.5, SVG Export Plug-In . SVG Version: 6.00 Build 0)  -->
<svg version="1.1" id="Layer_1" xmlns="http://www.w3.org/2000/svg" xmlns:xlink="http://www.w3.org/1999/xlink" x="0px" y="0px"
	 viewBox="0 0 25 25" style="enable-background:new 0 0 25 25;" xml:space="preserve">
<g>
	<polygon points="12.2,16.3 13.2,16.3 13.2,12.9 16.2,11.2 15.7,10.3 12.7,12 9.7,10.3 9.2,11.2 12.2,12.9 	"/>
	<path d="M13.8,23.4l0-4.1l-0.5,0l-0.5,0l0,4.1L10,21.9l-0.5,0.9c1.2,0.7,2.5,1.4,3.7,2.1c1.2-0.7,2.5-1.4,3.7-2.1l-0.5-0.9
		L13.8,23.4z"/>
	<path d="M12,1.6l0,4.1l0.5,0l0.5,0l0-4.1l2.6,1.5l0.5-0.9c-1.2-0.7-2.5-1.4-3.7-2.1c-1.2,0.7-2.5,1.4-3.7,2.1l0.5,0.9L12,1.6z"/>
	<path d="M19,9.1l0.3,0.5l3.6-2.1l0.1,3l1,0c0-1.4-0.1-2.8-0.1-4.3c-1.2-0.7-2.4-1.4-3.7-2.2L19.6,5l2.6,1.5l-3.5,2.1L19,9.1z"/>
	<path d="M5.3,4.8L4.7,3.9C3.5,4.7,2.3,5.5,1.1,6.2c0,1.4,0.1,2.8,0.1,4.3l1,0l-0.1-3l3.6,1.9l0.3-0.5l0.3-0.5L2.7,6.5L5.3,4.8z"/>
	<path d="M22.8,17.3l-3.6-2.1L19,15.7l-0.3,0.5l3.5,2.1l-2.6,1.5l0.5,0.9c1.2-0.7,2.4-1.4,3.7-2.2c0-1.4,0.1-2.8,0.1-4.3l-1,0
		L22.8,17.3z"/>
	<path d="M6,15.7l-0.3-0.5l-3.6,2.1l-0.1-3l-1,0c0,1.4,0.1,2.8,0.1,4.3c1.2,0.7,2.4,1.4,3.7,2.2l0.5-0.9l-2.6-1.5l3.5-2.1L6,15.7z"
		/>
</g>
</svg>
