<svg xmlns="http://www.w3.org/2000/svg" xml:space="preserve" style="enable-background:new 0 0 30 27.6" viewBox="0 0 30 27.6"><path d="M23.3 11.4z" style="fill:none;stroke:#000;stroke-width:1.7;stroke-miterlimit:10"/><path d="M27.7 4.3c-1.3-1.3-3.1-2.1-5.1-2.1-1.9 0-3.7.7-5.1 2.1L15 6.9l-2.6-2.6c-1.3-1.3-3.1-2.1-5-2.1s-3.7.8-5 2.1C1 5.7.3 7.4.3 9.3s.7 3.7 2.1 5l3.1 3.1-2.3.1.1 1.7 4.7-.1.5-.1-.1-5.1H6.6l.1 2.6-3.2-3.2c-1.1-1.1-1.6-2.5-1.6-3.9s.6-2.9 1.6-3.9c2.2-2.2 5.8-2.2 8 0L15 9l3.6-3.6c2.2-2.2 5.8-2.2 8 0 1.1 1.1 1.6 2.5 1.6 3.9s-.6 2.9-1.6 3.9L14.3 25.6l1.1 1.1 12.3-12.4c1.3-1.3 2.1-3.1 2.1-5s-.7-3.6-2.1-5z"/><path d="M15.2 14.6c0-1.3-1-2-2.1-2-.7 0-1.3.4-1.5.8v-.1c0-1 .6-1.7 1.5-1.7.5 0 .9.2 1.2.5l.6-1c-.4-.4-1.1-.6-1.8-.6-1.8 0-2.8 1.3-2.8 3.1 0 1.7.8 3.1 2.6 3.1 1.3 0 2.3-.9 2.3-2.1zm-2.4.9c-.8 0-1.2-.6-1.2-1.2.3-.4.7-.6 1.2-.6.6 0 1.1.3 1.1.9-.1.5-.4.9-1.1.9zM20.7 13.5c0-1.6-.8-3.1-2.5-3.1s-2.5 1.6-2.5 3.1c0 1.6.8 3.1 2.5 3.1 1.8.1 2.5-1.5 2.5-3.1zm-3.6 0c0-1.1.3-2 1.2-2 .9 0 1.2.9 1.2 2s-.3 2-1.2 2c-.9 0-1.2-.8-1.2-2z"/></svg>