<svg xmlns="http://www.w3.org/2000/svg" xml:space="preserve" style="enable-background:new 0 0 20 36" viewBox="0 0 20 36"><path d="M17.8 16.4c-.8-.2-1.5-.4-2.2-.4.6-.4 1-.9 1.4-1.5 1.1-1.7 1.3-3.7.4-5.8l-.2-.6-.6.1c-.8.1-1.6.4-2.2.6.3-.6.4-1.2.4-1.9.1-1.9-.9-3.6-2.8-5.1l-.4-.3-.4.3C9 3.4 7.9 5.2 7.8 7.1c-.1 1.9.9 3.6 2.8 5.1-.7 1.5-.7 3.2 0 5.1v.1c-1.4 1-2.3 2.5-2.8 4.5v.2c-1.7.3-3.3 1.2-4.8 2.8l-.5.5c-1.2 1.5-1.4 3.6-.4 5.1.8 1.3 2.3 2.1 3.8 2.1h.2L6 31.1c-1.1 0-2.2-.5-2.7-1.4-.6-1-.5-2.2.2-3.2 1.3 1.3 2.9 1.9 4.6 1.9h.3c2-.1 3.9-1 5.6-2.9l.5-.5-.4-.5c-.5-.6-1-1-1.6-1.4.7-.1 1.5-.4 2.1-.7 1.8-1 3-2.7 3.5-5l.1-.7-.4-.3zm-2.1-2.8c-.8 1.2-2.1 2-3.8 2.4-.4-1.5-.3-2.7.5-3.9.8-1.2 2.1-2 3.8-2.4.4 1.5.3 2.8-.5 3.9zM9.3 7.1c.1-1.3.8-2.5 2.2-3.7 1.2 1 1.8 2.2 1.8 3.4-.1 1.3-.8 2.5-2.2 3.7-1.2-1-1.8-2.1-1.8-3.4zm-.7 19.8c-1.4 0-2.7-.4-3.8-1.5 1.3-1.2 2.6-1.9 4.1-1.9 1.4 0 2.7.4 3.8 1.5-1.3 1.2-2.7 1.8-4.1 1.9zM14 21c-1.3.7-2.7.9-4.4.5.5-1.5 1.3-2.6 2.6-3.3 1.3-.7 2.7-.9 4.4-.5-.4 1.5-1.3 2.6-2.6 3.3z"/></svg>