<svg xmlns="http://www.w3.org/2000/svg" xml:space="preserve" style="enable-background:new 0 0 20 36" viewBox="0 0 20 36"><path d="m17.3 25.4-.4-.5c-1.5-1.6-3.1-2.5-4.8-2.8v-.2c-.4-2-1.4-3.5-2.8-4.5v-.1c.7-1.9.7-3.6 0-5.1 2-1.4 2.9-3.1 2.8-5.1 0-1.9-1.1-3.7-3.2-5.2l-.4-.4-.4.4c-2 1.4-3 3.1-2.9 5 0 .6.2 1.3.4 1.9-.6-.3-1.4-.5-2.2-.6l-.6-.1-.2.5c-.8 2.2-.7 4.1.4 5.8.4.6.9 1.1 1.4 1.5-.7.1-1.5.2-2.2.4l-.7.2.1.7c.5 2.3 1.7 4 3.5 5 .7.4 1.4.6 2.1.7-.6.4-1.1.9-1.6 1.4l-.3.7.5.5c1.7 1.8 3.6 2.8 5.6 2.9h.3c1.7 0 3.2-.6 4.6-1.9.7 1 .8 2.3.2 3.2-.5.9-1.6 1.4-2.7 1.4l-.1 1.5h.2c1.6 0 3.1-.8 3.8-2.1.9-1.6.7-3.6-.4-5.1zm-8.8-22c1.4 1.2 2.1 2.4 2.2 3.7.1 1.3-.5 2.4-1.8 3.4-1.4-1.1-2.1-2.3-2.2-3.6 0-1.3.5-2.4 1.8-3.5zM3.8 9.8c1.8.4 3.1 1.2 3.8 2.4.8 1.1.9 2.4.5 3.9-1.8-.4-3.1-1.2-3.8-2.4-.8-1.2-.9-2.5-.5-3.9zm-.4 7.9c1.7-.4 3.1-.2 4.4.5 1.3.7 2.1 1.8 2.6 3.3-1.7.4-3.1.2-4.4-.5-1.3-.7-2.2-1.8-2.6-3.3zm8 9.2c-1.4-.1-2.8-.7-4-1.9 1.1-1.1 2.4-1.6 3.8-1.5 1.5.1 2.8.7 4.1 1.9-1.2 1-2.4 1.5-3.9 1.5z"/></svg>