<svg xmlns="http://www.w3.org/2000/svg" viewBox="0 0 30 30" style="enable-background:new 0 0 30 30" xml:space="preserve"><path d="M.9 6.9v18.3h28.7V6.9H.9zm27 9.9H14.8c1.6-.8 2.2-1.3 2.5-1.9v-.1c.2-.5.4-1 .4-1.5 0-1.7-1.4-3.1-3.1-3.1-1 0-2 .5-2.6 1.4-.1.2-.3.5-.4.8V8.6h16.2v8.2zM5.4 13.3c0-.8.6-1.4 1.4-1.4.5 0 .9.2 1.2.6.4.5.7 1.9 1 3.6-2.5-1.2-3.3-1.7-3.4-2l-.3.2.3-.3c-.1-.2-.2-.5-.2-.7zm10.8.9-.3-.2c-.2.3-1 .8-3.4 2.1.4-1.7.7-3.1 1-3.6.3-.4.7-.6 1.2-.6.8 0 1.4.6 1.4 1.4 0 .3-.1.5-.2.7l.3.2zM10 8.6v4c-.2-.5-.3-.8-.5-1.1-.6-.9-1.5-1.4-2.6-1.4-1.7 0-3.1 1.4-3.1 3.1 0 .5.1 1 .4 1.5v.1c.3.6.9 1.1 2.5 1.9H2.6V8.6H10zm-7.4 9.9h5.3c-.7.4-1.4.9-2 1.3l1 1.4c1-.7 2.1-1.3 3.1-1.9v4.3H2.6v-5.1zm9.1 5v-4.2c1 .6 2.1 1.2 3 1.9l1-1.4c-.7-.5-1.3-.9-2-1.3H28v5.1H11.7z"/></svg>