<svg xmlns="http://www.w3.org/2000/svg" xml:space="preserve" style="enable-background:new 0 0 30 30" viewBox="0 0 30 30"><path d="M15 .3C6.9.3.3 6.9.3 15s6.6 14.8 14.8 14.8c8.1 0 14.8-6.6 14.8-14.8C29.8 6.9 23.1.3 15 .3zM1.8 15C1.8 7.7 7.7 1.8 15 1.8c3.4 0 6.4 1.3 8.8 3.3L5.2 23.9c-2.1-2.3-3.4-5.5-3.4-8.9zM15 28.3c-3.3 0-6.4-1.2-8.7-3.3L24.8 6.2c2.1 2.3 3.4 5.4 3.4 8.8.1 7.3-5.9 13.3-13.2 13.3z"/><path d="M6.2 10.5c.6.3 1.4.9 2.1 1.9.7 1.3.8 2.6.7 3.2 0 .4.3.7.6.7s.6-.3.6-.6c0-.8 0-2.3-1-3.9-.8-1.3-1.8-2-2.6-2.4-.3-.2-.7 0-.9.3 0 .3.2.7.5.8zM9.2 7c.2 0 .3 0 .4-.1.6-.5 1.2-1 1.9-1.3.8-.4 1.6-.6 2.5-.7.4 0 .6-.3.6-.7 0-.4-.3-.6-.7-.6-1 .1-2 .3-2.9.8-.8.4-1.6.9-2.2 1.5-.3.2-.3.7 0 .9.1.2.2.2.4.2zM5.2 19.3c.1 0 .3 0 .4-.1.3-.2.4-.6.1-.9-.3-.4-.7-1-.8-1.9-.2-1 .1-1.9.3-2.3.2-.3 0-.7-.3-.9-.3-.2-.7 0-.9.3-.4.9-.6 2-.4 3 .2 1.2.7 2 1.1 2.5.2.2.3.3.5.3zM13.6 8.9c-.1-.3-.5-.5-.8-.4-.3.1-.5.5-.4.8.2.6.5 1.2.8 1.8.3.5.8 1 1.2 1.4.1.1.3.2.4.2.2 0 .4-.1.5-.2.2-.3.2-.7-.1-.9-.4-.3-.7-.7-1-1.1-.2-.6-.4-1.1-.6-1.6zM17.3 9c.2 0 .4-.1.5-.3.5-.7 1-1.3 1.6-1.8.6-.5 1.4-1 2.1-1.3.3-.1.5-.5.3-.9-.1-.3-.5-.5-.9-.3-.9.4-1.7.9-2.4 1.5S17.2 7.2 16.6 8c-.2.3-.1.7.2.9.2.1.3.1.5.1zM16.7 20.9c-1.2-1-2.7-.8-3.1-.8-.4.1-.6.4-.5.8.1.4.4.6.8.5.2 0 1.2-.2 2 .5.7.6 1 1.5.8 2.4-.1.4.2.7.5.8h.1c.3 0 .6-.2.6-.5.3-1.4-.1-2.8-1.2-3.7zM27.2 14.5c-.4-.7-.7-1.5-.9-2.2-.2-.8-.3-1.6-.4-2.5 0-.4-.3-.6-.7-.6-.4 0-.6.3-.6.7 0 .9.2 1.9.4 2.8.2.9.6 1.7 1 2.5.1.2.3.4.6.4.1 0 .2 0 .3-.1.4-.3.5-.7.3-1zM22.3 14.4c-.2-.3-.6-.4-.9-.2-.8.6-1.6 1.2-2.2 2-.5.7-1 1.4-1.3 2.2-.1.3 0 .7.3.9.1 0 .2.1.3.1.3 0 .5-.1.6-.4.3-.7.7-1.3 1.1-1.9.5-.7 1.2-1.3 1.9-1.8.4-.2.4-.6.2-.9zM25.5 17.4c-.3-.1-.7.1-.8.4-.2.7-.6 1.4-1 2.1-.3.6-.7 1.1-1.2 1.6-.2.3-.2.7 0 .9.1.1.3.2.4.2.2 0 .4-.1.5-.2.5-.6 1-1.2 1.3-1.8.4-.7.8-1.5 1.1-2.4.3-.3.1-.7-.3-.8zM13.9 25.1c-.5.1-1 .2-1.5.2s-1-.1-1.5-.3c-.3-.1-.7.1-.8.4s.1.7.4.8c.6.2 1.3.3 1.9.4h.2c.5 0 1.1-.1 1.6-.2.3-.1.6-.4.5-.8-.1-.4-.4-.6-.8-.5z"/></svg>