<?xml version="1.0" encoding="utf-8"?>
<!-- Generator: Adobe Illustrator 23.0.5, SVG Export Plug-In . SVG Version: 6.00 Build 0)  -->
<svg version="1.1" id="Layer_1" xmlns="http://www.w3.org/2000/svg" xmlns:xlink="http://www.w3.org/1999/xlink" x="0px" y="0px"
	 viewBox="0 0 25 25" style="enable-background:new 0 0 25 25;" xml:space="preserve">
<g>
	<path d="M12.7,9.5c-2.9,0-5.2,2.4-5.2,5.2c0,2.9,2.4,5.2,5.2,5.2c2.9,0,5.2-2.4,5.2-5.2C17.9,11.9,15.6,9.5,12.7,9.5z M16.3,14.7
		c0,2-1.6,3.6-3.6,3.6c-2,0-3.6-1.7-3.6-3.6c0-2,1.7-3.6,3.6-3.6C14.7,11.1,16.3,12.7,16.3,14.7z"/>
	<path d="M18.8,5.9l-3.2-4.1l-0.1-0.1H9.8L6.6,5.9H0.5v17.8h24.4V5.9H18.8z M2.2,22V7.6h5.3l0.1-0.1c0.5-0.7,1.1-1.4,1.6-2
		c0.5-0.7,1-1.3,1.5-2h4c0.5,0.6,1,1.3,1.5,2c0.5,0.7,1,1.4,1.6,2l0.1,0.1h5.3V22H2.2z"/>
</g>
</svg>
