<svg xmlns="http://www.w3.org/2000/svg" xml:space="preserve" style="enable-background:new 0 0 30 30" viewBox="0 0 30 30"><path d="m29.8 14.6-3-1.4-3.1-4.3h-4.5V5.2H.3v17.1h4.2c.3 1.4 1.6 2.5 3.1 2.5s2.8-1.1 3.1-2.5H20c.3 1.4 1.6 2.5 3.1 2.5s2.8-1.1 3.1-2.5h3.5v-7.7zM7.6 23.3c-.9 0-1.7-.8-1.7-1.7 0-.9.8-1.7 1.7-1.7s1.7.8 1.7 1.7c0 .9-.8 1.7-1.7 1.7zm10-2.5h-6.9c-.3-1.4-1.6-2.5-3.1-2.5s-2.8 1-3.1 2.5H1.8V6.7h15.8v14.1zm5.5 2.5c-.9 0-1.7-.8-1.7-1.7 0-.9.8-1.7 1.7-1.7 1 0 1.7.8 1.7 1.7.1.9-.7 1.7-1.7 1.7zm5.2-2.5h-2c-.3-1.4-1.6-2.5-3.1-2.5s-2.8 1-3.1 2.5h-1V10.4h3.8l2.9 4 2.5 1.2v5.2z"/></svg>