<svg xmlns="http://www.w3.org/2000/svg" xml:space="preserve" style="enable-background:new 0 0 30 30" viewBox="0 0 30 30"><path d="M20.1 18.6V13c-.1-5.4-4.5-9.8-9.9-9.8C4.7 3.2.3 7.7.3 13.1c0 2.4.9 4.7 2.5 6.6V24h25.5v2.2h1.5v-7.5h-9.7zm-.6 3.8H4.2v-3.2c0-.1-.1-.2-.2-.3-1.5-1.6-2.3-3.6-2.3-5.8 0-4.7 3.8-8.4 8.4-8.4s8.4 3.8 8.4 8.4v7h2.6v1.3h1.5v-1.3h1.7v1.3H26v-1.3h2.3v2.3h-8.8z"/><path d="M9.9 7.1c-2.9 0-5.3 2.4-5.3 5.3s2.4 5.3 5.3 5.3 5.3-2.4 5.3-5.3-2.4-5.3-5.3-5.3zm0 9.1c-2.1 0-3.8-1.7-3.8-3.8s1.7-3.8 3.8-3.8 3.8 1.7 3.8 3.8-1.7 3.8-3.8 3.8z"/></svg>