<svg xmlns="http://www.w3.org/2000/svg" xml:space="preserve" style="enable-background:new 0 0 30 30" viewBox="0 0 30 30"><path d="M24.3 15.7h-.6c-1.2-.1-2.3.1-3.4.5-.9.3-1.8.8-2.6 1.5-.7.7-1.3 1.6-1.7 2.5-.5 1.2-.5 2.3-.4 3.2-.2.3-.5.6-.7.9l-.6-.9c.1-.8.1-1.9-.4-3.2-.4-.9-1-1.8-1.7-2.5-.8-.6-1.6-1.1-2.5-1.5-1.1-.4-2.2-.6-3.4-.5h-.6l-.1.6c-.2 1.1-.1 2.3.2 3.4.3.9.7 1.8 1.3 2.6l.1.1c.7.7 1.5 1.2 2.4 1.6 1 .4 2 .6 2.9.6h.8c.2.2.4.5.5.8.2.4.4.8.4 1.3v3.1h1.5v-3.1c.1-.4.2-.9.4-1.3.1-.3.3-.5.5-.8h.8c.8 0 1.8-.1 2.9-.6.9-.4 1.7-.9 2.4-1.6l.1-.1c.6-.8 1-1.6 1.3-2.6.3-1.1.4-2.3.2-3.4v-.6zm-16 5.6c-.5-.6-.8-1.3-1-2-.2-.7-.3-1.4-.3-2.1.7 0 1.5.2 2.1.4.8.3 1.5.7 2.1 1.2.6.5 1 1.2 1.3 2 .2.4.2.8.3 1.2l-2.5-2.3-1 1.1 2.4 2.2c-.5-.1-1-.2-1.5-.4-.7-.4-1.4-.8-1.9-1.3zm14.4-2.1c-.2.7-.6 1.4-1 2-.6.5-1.2.9-1.9 1.2-.5.2-1 .3-1.5.4l2.4-2.2-1-1.1-2.5 2.3c.1-.4.1-.8.3-1.2.4-.9.9-1.6 1.3-1.9.6-.5 1.3-.9 2.1-1.2.7-.3 1.4-.4 2.1-.4 0 .8-.1 1.5-.3 2.1zM.098 13.41l.004-1 30 .116-.004 1zM5.3 3.9v4.7h1.4V2.1H5.5l-2.1 2 .8.9zM10.4 8.7c1.9 0 2.7-1.7 2.7-3.4S12.2 2 10.4 2 7.7 3.7 7.7 5.3s.8 3.4 2.7 3.4zm0-5.5c.9 0 1.3.9 1.3 2.1s-.4 2.1-1.3 2.1-1.3-.9-1.3-2.1.3-2.1 1.3-2.1zM16.4 8.7c1.9 0 2.7-1.7 2.7-3.4S18.3 2 16.4 2s-2.7 1.7-2.7 3.4.9 3.3 2.7 3.3zm0-5.5c.9 0 1.3.9 1.3 2.1s-.4 2.1-1.3 2.1-1.3-.9-1.3-2.1.4-2.1 1.3-2.1zM21.4 5.2c1 0 1.7-.7 1.7-1.6 0-.9-.7-1.6-1.7-1.6s-1.7.7-1.7 1.6c0 .9.6 1.6 1.7 1.6zm0-2.3c.4 0 .7.3.7.7 0 .5-.3.7-.7.7-.4 0-.7-.3-.7-.7 0-.5.3-.7.7-.7zM23.3 7.1c0 .9.7 1.6 1.7 1.6s1.7-.7 1.7-1.6c0-.9-.7-1.6-1.7-1.6-1-.1-1.7.7-1.7 1.6zm2.4 0c0 .5-.3.7-.7.7s-.7-.2-.7-.7c0-.5.3-.7.7-.7s.7.2.7.7zM21.6 8.6l4.1-6.5h-.8l-4.2 6.5z"/></svg>