<?xml version="1.0" encoding="utf-8"?>
<!-- Generator: Adobe Illustrator 23.0.5, SVG Export Plug-In . SVG Version: 6.00 Build 0)  -->
<svg version="1.1" id="Layer_1" xmlns="http://www.w3.org/2000/svg" xmlns:xlink="http://www.w3.org/1999/xlink" x="0px" y="0px"
	 viewBox="0 0 25 25" style="enable-background:new 0 0 25 25;" xml:space="preserve">
<g>
	<path d="M24.7,6L13.4,0.4L13,0.3L1.6,5.8L1.2,6l0,17.8l0,0.8l22.7,0l0.8-0.1V6.4L24.7,6z M23.2,23.1l-20.5,0l0-16.2l10.3-5l10.1,5
		V23.1z"/>
	<path d="M12.1,8.9c-0.7-0.7-1.7-1.1-2.7-1.1c-1,0-2,0.4-2.7,1.1c-1.5,1.5-1.5,3.9,0,5.5l6.3,6.3l6.4-6.4c0.7-0.7,1.1-1.7,1.1-2.7
		s-0.4-2-1.1-2.7c0,0,0,0,0,0c-0.7-0.7-1.7-1.1-2.7-1.1c-1,0-2,0.4-2.7,1.1l-0.9,0.9L12.1,8.9z"/>
</g>
</svg>
