<?xml version="1.0" encoding="utf-8"?>
<!-- Generator: Adobe Illustrator 23.0.5, SVG Export Plug-In . SVG Version: 6.00 Build 0)  -->
<svg version="1.1" id="Layer_1" xmlns="http://www.w3.org/2000/svg" xmlns:xlink="http://www.w3.org/1999/xlink" x="0px" y="0px"
	 viewBox="0 0 30 30" style="enable-background:new 0 0 30 30;" xml:space="preserve">
<g>
	<path d="M29.3,7L15.5,0.3l-0.4-0.2L1.2,6.8L0.7,7.1l0,21.8l0,0.8l27.8,0l0.8-0.1V7.6L29.3,7z M27.7,28.1l-25.3,0l0-20L15.1,2
		l12.5,6.1V28.1z"/>
	<path d="M11.8,10.3c-1,0-2,0.4-2.7,1.1c-1.5,1.5-1.5,3.9,0,5.5l6.3,6.3l6.4-6.4c0.7-0.7,1.1-1.7,1.1-2.7s-0.4-2-1.1-2.7
		c0,0,0,0,0,0c-0.7-0.7-1.7-1.1-2.7-1.1c-1,0-2,0.4-2.7,1.1l-0.9,0.9l-0.9-0.9C13.8,10.6,12.9,10.3,11.8,10.3z"/>
</g>
</svg>
