<svg xmlns="http://www.w3.org/2000/svg" xml:space="preserve" style="enable-background:new 0 0 30 30" viewBox="0 0 30 30"><path d="m12 16.2 1.5 1.1-.7-1.7c-.2-.4-.3-.9-.2-1.3 0-.5.3-.9.6-1.5.2-.4.6-.9.9-1.7.1-.1.1-.3.2-.4.6.9.6 1.9.6 2.6l-.2 1.7 1.1-1.3c.1.7.1 1.3 0 2l-.2 1.4 1.1-1c.3-.3 2.9-2.9 2.2-6.1-.2-.8-.6-1.6-1.1-2.3l-.7-.7-.3 1.1c0 .1 0 .2-.1.2-.1-1.2-.6-2.6-1.6-3.8-.4-.5-.9-.9-1.4-1.3l-1.2-.9.5 1.5c.1.2.1.5.1.7 0 .4-.2.7-.4.9-.5.6-.9 1.1-1.1 1.4l-.2.3c-.6.7-.9 1.1-1.3 1.8-.2.3-.3.6-.4.8-.2.7-.4 2.1.2 3.7.6 1.5 1.6 2.4 2.1 2.8zm4.7-5.8c.3-.3.6-.6.8-.9 0 0 0-.1.1-.1.2.3.3.7.4 1 .3 1.6-.3 3-1 4 0-.6-.2-1.3-.3-1.9 0-.1-.1-.2-.1-.3L16 11l.7-.6zm-6-.4c.1-.2.2-.4.3-.7.3-.6.6-.9 1.1-1.6l.2-.3c.3-.3.7-.8 1.2-1.4.2-.3.5-.7.6-1.2l.3.3c1.4 1.7 1.5 3.7 1.4 4.8l-.1 1.3.1-.1-.1.2c-.1-.4-.3-.9-.6-1.3-.2-.3-.4-.6-.7-.8l-.6-.6-.2.9c-.1.4-.3.8-.4 1.2-.3.7-.5 1.1-.8 1.5-.4.6-.7 1.2-.7 1.9-.2-.3-.5-.7-.7-1.2-.6-1.1-.4-2.3-.3-2.9z"/><path d="m21.4 18.7-.1 1.3 1.5.1.1-2.5.1-.1v-1.1l-.9-.1-.1-.1-.1.1-2.5-.2-.1 1.4.9.1-5 3.8L7.7 16l-.9 1.3 8.4 6.1z"/><path d="M23.7 21.5h-4.1v1.6H23l2.5 3h-21l2.5-3h3.4v-1.6H6.3L1 27.7h28z"/></svg>