<svg xmlns="http://www.w3.org/2000/svg" xml:space="preserve" style="enable-background:new 0 0 30 30" viewBox="0 0 30 30"><path d="M27.3 19.5c-.7-.5-1.4-1.1-2-1.6-1.2-1-2.1-1.9-2.5-2.3-2.4-2.4-4.2-4.2-4.8-6.9-.3-1.3-.2-2.7.1-4.2l-1.5-.4c-.4 1.7-.5 3.4-.2 4.9.7 3 2.7 5.1 5.2 7.6.3.4 1.3 1.3 2.6 2.4.7.6 1.4 1.1 2 1.6.2.2.4.5.4.8 0 .5-.7 1.1-1.9 1h-3.4c-1.9-.1-3.8-.2-5.7-.5-.3-.1-.6-.2-.8-.3-.7-.4-1-1-1.5-1.8-.2-.3-.3-.6-.5-1-.6-.9-1.3-1.8-2.1-2.6l-.1-.1c-.6-.4-1.3-.8-2-1-.6-.2-1.1-.4-1.5-.5-.6-.2-1.1-.3-1.6-.6-.3-.2-.7-.5-1-.8-.2-.4-.3-.8-.3-1.3 0-.8.2-1.4.4-1.7.7-.6 1.1-1.2 1.3-1.5l.6-.8c.5-.7.8-1.2 1.1-1.8.3-.6.4-1.2.6-1.9V1.3H6.7V4c-.1.5-.2 1-.4 1.5-.3.5-.5.8-1 1.5l-.6.8c-.3.4-.6.9-1.1 1.7-.4.5-.7 1.4-.7 2.5 0 .7.2 1.4.5 2l.1.2c.4.4.9.8 1.3 1.1.7.5 1.4.6 2 .8.4.1.8.2 1.3.4.6.2 1.1.5 1.7.9.7.7 1.3 1.5 1.8 2.3.2.3.3.6.5.9.5.9 1 1.8 2.1 2.4.4.2.8.4 1.3.5 1.9.3 3.9.5 5.9.5h3.4c1.8.1 3.3-1 3.4-2.4.1-1-.5-1.8-.9-2.1z"/><path d="M19.5 28c-1.6-.1-3.7-.1-5.8-1.4-.4-.2-.8-.5-1.1-.8-.3-.4-.8-1-1.4-1.6-1.1-1.2-2.2-2.3-3.5-3.3-1.5-1-3.1-1.7-5-2.2l-.3 1.5c1.7.4 3.2 1 4.5 1.9 1.2.8 2.2 1.9 3.3 3 .6.6 1.1 1.2 1.4 1.6l.1.1c.4.4.9.7 1.4 1 2.4 1.5 4.8 1.6 6.5 1.6h.7c2.2 0 4.4-.4 6.5-1.1l-.6-1.3c-2.2.7-4.5 1.1-6.7 1z"/></svg>