<svg xmlns="http://www.w3.org/2000/svg" xml:space="preserve" style="enable-background:new 0 0 30 30" viewBox="0 0 30 30"><path d="M11.2 12.6c.3-1.2.4-2.4.4-3.6 0-1.8-.1-5.5-2.6-7.4C8.6 1.4 6.8.1 4.8.8c-.6.2-1.5.7-2.2 1.7-.7 1.1-.8 2.5-.5 4.6.4 2.5 1.3 4.9 2.8 7.2l.3.5 5.9-1.7.1-.5zm-1.3-.7-4 1.1C4.7 11 4 9 3.6 6.9c-.4-2.1 0-3 .3-3.6.4-.6.8-.9 1.3-1.1.3-.1.5-.1.8-.1 1.1 0 2 .7 2.1.8 2 1.5 2 4.6 2 6.2 0 .9-.1 1.8-.2 2.8zM11.9 15.6l-.3-.4L6.2 17v.5c0 .4.1 3.9 2 5.4.9.7 1.7.8 1.8.8h.5c.5 0 .9-.1 1.4-.3.7-.3 1.2-.9 1.6-1.7.7-1.4.2-2.8 0-3.6-.4-.9-.9-1.8-1.6-2.5zm.2 5.6c-.1.2-.3.7-.9 1-.5.2-.9.2-1 .1 0 0-.6-.1-1.1-.5-1-.8-1.3-2.6-1.4-3.7l3.4-1.1c.4.5.7 1.1.9 1.7.2.7.5 1.6.1 2.5zM27 8.9c-.2-.6-.8-1.9-2.1-2.5-.7-.3-1.5-.3-1.9-.2-.9.2-1.7.6-2.4 1.1-2.5 2-2.5 5.5-2.6 7.4 0 1.2.1 2.4.4 3.6l.1.4 5.9 1.7.3-.5c1.2-1.9 2.1-3.9 2.5-5.9.4-2 .3-3.8-.2-5.1zm-1.3 4.8c-.3 1.7-1 3.4-2 4.9l-3.9-1.1c-.2-.9-.3-1.9-.2-2.8 0-1.6.1-4.7 2-6.2.5-.4 1.1-.7 1.8-.8.1 0 .5-.1 1 .1.6.3 1 1.2 1.2 1.7.4 1 .4 2.5.1 4.2zM17.9 21.2c-.7.8-1.2 1.7-1.5 2.7-.3.8-.7 2.2 0 3.6.4.8.9 1.4 1.6 1.7.4.2.9.3 1.4.3h.5c.1 0 1-.2 1.8-.9 1.9-1.5 1.9-5 1.9-5.4v-.5l-5.3-1.8-.4.3zm4.2 2.5c-.1 1.1-.4 2.9-1.4 3.7-.5.4-1.1.5-1.1.5-.4.1-.7 0-1-.1-.6-.3-.8-.8-.9-1-.4-.9-.1-1.8.1-2.5.2-.6.5-1.2.9-1.7l3.4 1.1z"/></svg>