<?xml version="1.0" encoding="utf-8"?>
<!-- Generator: Adobe Illustrator 23.0.5, SVG Export Plug-In . SVG Version: 6.00 Build 0)  -->
<svg version="1.1" id="Layer_1" xmlns="http://www.w3.org/2000/svg" xmlns:xlink="http://www.w3.org/1999/xlink" x="0px" y="0px"
	 viewBox="0 0 25 25" style="enable-background:new 0 0 25 25;" xml:space="preserve">
<g>
	<path d="M24.5,11.8l-2.3-1.1l-2.4-3.2l-3.4,0V4.7H5.9v1.2h9.3v10.5h-5.1c-0.3-1.1-1.2-1.8-2.4-1.8s-2.1,0.8-2.4,1.8h-1v1.2h1
		c0.3,1.1,1.2,1.9,2.4,1.9s2.1-0.8,2.4-1.9h5.7h0.6h0.7c0.3,1.1,1.2,1.9,2.4,1.9c1.1,0,2.1-0.8,2.4-1.9h2.6V11.8z M7.8,18.3
		c-0.7,0-1.3-0.6-1.3-1.3c0-0.7,0.6-1.3,1.3-1.3s1.3,0.6,1.3,1.3C9.1,17.7,8.5,18.3,7.8,18.3z M19.5,18.3c-0.7,0-1.3-0.6-1.3-1.3
		c0-0.7,0.6-1.3,1.3-1.3c0.7,0,1.3,0.6,1.3,1.3C20.8,17.7,20.2,18.3,19.5,18.3z M23.3,16.4h-1.4c-0.3-1.1-1.2-1.9-2.4-1.9
		c-1.1,0-2.1,0.8-2.4,1.8h-0.7V8.7l2.8,0l2.2,3l1.9,0.9V16.4z"/>
	<rect x="0.2" y="12.1" width="7.6" height="1.2"/>
	<rect x="3.4" y="8.2" width="4.4" height="1.2"/>
</g>
</svg>
