<svg xmlns="http://www.w3.org/2000/svg" xml:space="preserve" style="enable-background:new 0 0 30 30" viewBox="0 0 30 30"><path d="M29.8 14.6 27 13.3l-2.8-3.8h-4V6.2H7.8v1.5h11V20h-6c-.3-1.3-1.5-2.2-2.8-2.2s-2.5.9-2.8 2.2H5.9v1.5h1.2c.3 1.3 1.5 2.2 2.8 2.2s2.5-.9 2.8-2.2h8.1c.3 1.3 1.5 2.2 2.8 2.2 1.4 0 2.5-.9 2.8-2.2h3.1v-6.9zM10 22.3c-.8 0-1.4-.6-1.4-1.4 0-.8.6-1.4 1.4-1.4s1.4.6 1.4 1.4c0 .7-.6 1.4-1.4 1.4zm13.8 0c-.8 0-1.4-.6-1.4-1.4 0-.8.6-1.4 1.4-1.4.8 0 1.4.6 1.4 1.4 0 .7-.6 1.4-1.4 1.4zm4.5-2.2h-1.6c-.3-1.3-1.5-2.2-2.8-2.2-1.4 0-2.5.9-2.8 2.2h-.7V11h3.2l2.6 3.5 2.2 1v4.6z"/><path d="M1 14.9h9v1.5H1zM4.8 10.3H10v1.5H4.8z"/></svg>