<svg xmlns="http://www.w3.org/2000/svg" xml:space="preserve" style="enable-background:new 0 0 30 30" viewBox="0 0 30 30"><path d="M.8 5.9V24h28.5V5.9H.8zm26.9 9.9H14.2c1.9-1 2.5-1.4 2.9-2.1v-.1c.2-.4.4-.9.4-1.4 0-1.7-1.4-3-3-3-1 0-1.9.5-2.5 1.3-.2.3-.4.7-.6 1.3V7.4h16.4v8.4zM5.1 12.2c0-.8.7-1.5 1.5-1.5.5 0 1 .3 1.3.7.4.6.7 1.9 1.1 3.8-.1 0-.1-.1-.2-.1-2.6-1.3-3.3-1.7-3.5-2.1l-.2.1.2-.1c-.2-.2-.2-.5-.2-.8zm8.1-.8c.3-.4.8-.7 1.3-.7.8 0 1.5.7 1.5 1.5 0 .3-.1.5-.2.8l.2.1-.3-.1c-.2.4-.9.8-3.5 2.1-.1 0-.1.1-.2.1.5-1.9.8-3.3 1.2-3.8zm-3.4-4v4.8c-.2-.8-.4-1.3-.7-1.7-.6-.8-1.5-1.3-2.5-1.3-1.7 0-3 1.4-3 3 0 .5.1 1 .4 1.4v.1c.3.6 1 1.1 2.9 2.1H2.3V7.4h7.5zm-7.5 9.9H8l-2.4 1.5.9 1.2c1-.7 2.2-1.4 3.3-2v4.6H2.3v-5.3zm9 5.3v-4.5c1.1.6 2.2 1.3 3.2 2l.9-1.2c-.8-.5-1.5-1-2.4-1.5h14.7v5.3H11.3z"/></svg>