<?xml version="1.0" encoding="utf-8"?>
<!-- Generator: Adobe Illustrator 23.0.5, SVG Export Plug-In . SVG Version: 6.00 Build 0)  -->
<svg version="1.1" id="Layer_1" xmlns="http://www.w3.org/2000/svg" xmlns:xlink="http://www.w3.org/1999/xlink" x="0px" y="0px"
	 viewBox="0 0 25 25" style="enable-background:new 0 0 25 25;" xml:space="preserve">
<style type="text/css">
	.st0{fill:#EFEFEF;stroke:#EFEFEF;stroke-linecap:round;stroke-linejoin:round;stroke-miterlimit:10;}
	.st1{stroke:#000000;stroke-linecap:round;stroke-linejoin:round;stroke-miterlimit:10;}
	.st2{fill:#EFEFEF;}
</style>
<path class="st0" d="M-207.9-55.6c7.7,14.6,14.4,29.3,22,43.9c16.3,3,32.6,6.1,49,9.1c-11.7,11.9-23.4,23.7-35,35.6
	c2.3,16.5,4.7,32.9,7,49.4c-14.3-6.3-28.7-12.7-43-19"/>
<path class="st1" d="M-253.3,63.4c-15.3,7-30.7,14-46,21c1.7-17.3,3.3-34.7,5-52c-11.3-12-22.7-24-34-36c16.7-2.9,33.5-5.8,50.2-8.7
	c7.9-14.4,15.9-28.9,23.8-43.3"/>
<g>
	<path class="st2" d="M12.8,20.8l6.6,2.9c0.2,0.1,0.4,0.1,0.5-0.1c0.1-0.1,0.2-0.3,0.2-0.5L19,15.6l5.3-5.4c0.1-0.1,0.2-0.3,0.1-0.5
		c-0.1-0.2-0.2-0.3-0.4-0.3l-7.5-1.4l-3.5-6.7C13,1.1,12.8,1,12.7,1"/>
	<path d="M12.7,1c-0.2,0-0.4,0.1-0.4,0.3L8.6,7.8L0.9,9.2c-0.2,0-0.3,0.2-0.4,0.3c-0.1,0.2,0,0.4,0.1,0.5l5.2,5.5l-0.8,8
		c0,0.2,0.1,0.4,0.2,0.5C5.4,24,5.5,24,5.6,24c0.1,0,0.1,0,0.2,0l7-3.2"/>
</g>
</svg>
