<svg xmlns="http://www.w3.org/2000/svg" xml:space="preserve" style="enable-background:new 0 0 30 30" viewBox="0 0 30 30"><path d="m16.7 27.4 7-5.3-.1 1.4 1.6.1.3-3.7v-.6l-4.2-.3-.1 1.6 1.5.1-7 5.3-9-6.6-1 1.4 9.1 6.6H1v1.7l28 .1v-1.7z"/><path d="m12 19 2.1 1.5-1-2.4c-.2-.6-.3-1.1-.3-1.6.1-.7.3-1.2.8-1.9.3-.5.7-1.2 1.1-2.2.1-.2.1-.3.2-.5.7 1.2.8 2.4.7 3.3l-.1 1.3 1.2-.5c.4-.2.7-.4 1-.7v.2c.3 1.1.1 2.1-.1 2.8l-.7 2.2 1.8-1.3c.6-.4 3.4-2.6 3.4-6.4 0-2.4-1.1-4.2-1.8-5.1l-1-1.3-.3 1.5c0 .2-.1.3-.2.5-.2-1-.6-2-1.1-2.9-1-1.9-2.4-3-3.4-3.7L12.7.7l.5 1.9c.1.3.1.6.1.9-.1.5-.3 1-.5 1.2-.6.8-1.1 1.4-1.5 1.8l-.3.4c-.8.9-1.2 1.4-1.7 2.3-.1.4-.3.8-.4 1.3-.2.9-.5 2.8.3 4.9.7 1.9 2.1 3.1 2.8 3.6zm-1.7-8.1c.1-.2.2-.5.4-.9.4-.7.7-1.2 1.5-2l.3-.4c.4-.4.9-1.1 1.5-1.9.3-.3.6-.9.7-1.6.6.6 1.2 1.3 1.7 2.2.7 1.2 1 2.6 1.1 4v1.3l1.1-.7c.4-.2.7-.5.9-.8.1-.1.2-.3.3-.4.4.8.7 1.8.7 3 0 1.6-.7 2.8-1.3 3.7 0-.4-.1-.8-.2-1.3-.2-.6-.4-1.2-.7-1.8l-.8-1.4-.5 1.6c-.1-.8-.4-1.7-1-2.5-.3-.4-.6-.8-.9-1.1l-.9-.9-.3 1.2c-.1.5-.3 1.1-.5 1.6-.4.8-.7 1.5-1 2-.5.8-.9 1.5-1 2.5-.3-.4-.6-.9-.8-1.5-.7-1.7-.5-3.2-.3-3.9z"/></svg>