<svg xmlns="http://www.w3.org/2000/svg" xml:space="preserve" style="enable-background:new 0 0 30 30" viewBox="0 0 30 30"><path d="m15.9 15.2.1-1.5h-4.1c-1.5.1-2.1.1-2.5.2-1.8.1-3.3.8-4.4 1.8-1.9 1.6-2.9 4.4-3 7.8v4h1.5v-4c0-3 .9-5.3 2.4-6.7.9-.8 2.2-1.3 3.6-1.5h.1c.2 0 .8-.1 2.2-.2 1.4 0 2.8 0 4.1.1zM14.1 10.6c2.8 0 5.1-2.3 5.1-5.1S16.9.4 14.1.4 9 2.7 9 5.5s2.3 5.1 5.1 5.1zm0-8.7c2 0 3.6 1.6 3.6 3.6s-1.6 3.6-3.6 3.6-3.6-1.6-3.6-3.6 1.6-3.6 3.6-3.6zM23.6 11.8 10.2 25.2l4.4 4.4L28 16.2l-4.4-4.4zM12.3 25.2l1.1-1.1 1.4 1.4.8-.8-1.4-1.4.7-.7 2 2 .9-.9-2-2 .6-.6 1.4 1.4.8-.8-1.4-1.4 1-1 1.9 1.9.9-.9-1.9-1.9 1-1 1.4 1.4.8-.8-1.3-1.4.7-.7 1.4 1.4.8-.8-1.4-1.4 1.1-1.1 2.2 2.2-11.2 11.3-2.3-2.3z"/></svg>