<svg xmlns="http://www.w3.org/2000/svg" xml:space="preserve" style="enable-background:new 0 0 30 30" viewBox="0 0 30 30"><path d="M11.9 17.3c-.5.4-1 1-1.6 1.8-.7 1.2-1.1 2.5-1.2 4.1h11.1c-.1-1.5-.5-2.9-1.2-4.1-.5-.8-1.1-1.4-1.6-1.8-.6-.6-1-1-1-1.7s.4-1.1 1-1.7c.4-.4.9-.9 1.4-1.6.8-1.3 1.3-2.8 1.4-4.6H9.1c.1 1.7.6 3.3 1.4 4.6.5.7 1 1.2 1.4 1.6.6.6 1 1 1 1.7s-.4 1.1-1 1.7zm-.1-5.9h5.8l-2.7 3.2.1 4.5 3.1 1.4.2 1.1H11l.2-1.1 3.1-1.4.1-4.5-2.6-3.2z"/><path d="M28.8 18 27 19c.4-1.3.6-2.7.6-4.1 0-7.5-6.1-13.6-13.6-13.6S.5 7.5.5 15s6 13.6 13.5 13.6c1 0 2-.1 2.9-.3l-.3-1.5c-.9.2-1.7.3-2.6.3-6.6 0-12-5.4-12-12.1S7.4 2.9 14 2.9 26.1 8.3 26.1 15c0 1.3-.2 2.7-.7 3.9l-1.2-2.2-1.3.7 2.2 3.8.3.4 4.1-2.4-.7-1.2z"/></svg>