<svg xmlns="http://www.w3.org/2000/svg" xml:space="preserve" style="enable-background:new 0 0 30 30" viewBox="0 0 30 30"><path d="M12.4 16.9c.6.3 1.2.5 1.9.5 2.2 0 4-1.8 4-4 0-2-3.1-6.6-3.4-7.1l-.5-.8-.5.8c-.4.5-3.5 5.1-3.5 7.1 0 .9.3 1.7.8 2.4.3.5.7.9 1.2 1.1zm-.7-3.5c0-1 1.5-3.7 2.7-5.6 1.2 1.9 2.7 4.6 2.7 5.6 0 1.5-1.2 2.7-2.7 2.7-.5 0-.9-.1-1.3-.3-.3-.2-.6-.4-.9-.7-.4-.5-.5-1.1-.5-1.7zM16.3 26.2l7.8-5.9L24 22l1.5.1.3-3.8.1-.5-4.3-.4-.1 1.6 1.8.1-7.5 5.7-9.5-6.9-.9 1.2 9.8 7.1H.5v1.5l29 .1v-1.5zM6.5 9.3c.4.2.8.3 1.2.3.7 0 1.3-.3 1.8-.7.5-.5.7-1.1.7-1.8C10.3 6 8.8 3.7 8.3 3l-.5-.8-.6.8c-.5.7-2 3-2 4.1 0 .6.2 1.1.5 1.5.2.3.5.6.8.7zm1.3-4.7C8.4 5.7 9 6.8 9 7.2c0 .3-.1.6-.4.9-.2.1-.5.2-.9.2-.2 0-.4-.1-.6-.1l-.3-.3c-.2-.2-.3-.5-.3-.8 0-.4.6-1.5 1.3-2.5zM22.5 12.4c.4.2.8.3 1.2.3 1.4 0 2.5-1.1 2.5-2.5 0-1.1-1.5-3.4-1.9-4.1l-.5-.8-.5.8c-.5.7-2 3-2 4.1 0 .6.2 1.1.5 1.5.1.3.4.5.7.7zm0-2.2c0-.4.6-1.5 1.2-2.5.6 1.1 1.2 2.2 1.2 2.6 0 .7-.5 1.2-1.2 1.2-.2 0-.4-.1-.6-.1-.2-.1-.3-.2-.4-.3-.1-.4-.2-.6-.2-.9z"/></svg>