<?xml version="1.0" encoding="utf-8"?>
<!-- Generator: Adobe Illustrator 23.0.5, SVG Export Plug-In . SVG Version: 6.00 Build 0)  -->
<svg version="1.1" id="Layer_1" xmlns="http://www.w3.org/2000/svg" xmlns:xlink="http://www.w3.org/1999/xlink" x="0px" y="0px"
	 viewBox="0 0 25 25" style="enable-background:new 0 0 25 25;" xml:space="preserve">
<style type="text/css">
	.st0{stroke:#000000;stroke-miterlimit:10;}
</style>
<path class="st0" d="M-30,28"/>
<g>
	<path d="M11.6,0.6L2.3,2.3l-1.7,9.3l12.3,13.1l11.9-11L11.6,0.6z M2.4,11.1l1.3-7.3l7.3-1.3l11.2,11.2l-9.4,8.7L2.4,11.1z"/>
	<rect x="10.9" y="7.9" width="1.7" height="8"/>
	<path d="M7.9,9.9c-1,0-1.8,0.8-1.8,1.8s0.8,1.8,1.8,1.8s1.8-0.8,1.8-1.8S8.9,9.9,7.9,9.9z"/>
	<path d="M15.5,10.7c-1,0-1.8,0.8-1.8,1.8c0,1,0.8,1.8,1.8,1.8s1.8-0.8,1.8-1.8C17.3,11.5,16.5,10.7,15.5,10.7z"/>
</g>
</svg>
