<svg xmlns="http://www.w3.org/2000/svg" xml:space="preserve" style="enable-background:new 0 0 30 30" viewBox="0 0 30 30"><path d="M10.2 12.7h11.1l2.2-8.2h-3L17 .1h-2.4L11 4.5H8l2.2 8.2zm9.9-1.5h-8.8L9.9 6h11.6l-1.4 5.2zm-4.8-9.6h1l2.3 2.9H13l2.3-2.9zM29.5 20.4c-.5-1.3-2-2.1-3.4-1.8l-4.7 1c-.2-1.1-1.1-2-2.2-2.3l-9.3-1.2-.2.1c-.8.4-1.5.7-2.4 1.1-.4.2-.8.3-1.2.5-.9.1-1.9.1-2.8-.1-.7-.2-1.4-.4-2-.8l-.7 1.3c.8.5 1.6.8 2.4 1 1.1.3 2.3.3 3.5.1h.2c.4-.3.8-.4 1.3-.6.8-.3 1.5-.7 2.2-1l8.7 1.1c.7.2 1.1.8 1.1 1.5s-.5 1.3-1.1 1.5c-1.1.1-2.2.1-3.2.1-.8 0-1.7-.1-2.5-.2l-.2 1.5c.9.1 1.8.2 2.7.2h.8c.9 0 1.8 0 2.7-.1 1.1-.2 1.9-1.1 2.3-2.1l5.1-1.1c.7-.1 1.4.3 1.7.9.3.7 0 1.5-.5 1.8l-10.7 5.5-10.7-4-5.5 2 .5 1.4 5-1.8 10.8 4 11.4-5.8c1-.8 1.5-2.4.9-3.7z"/></svg>