<?xml version="1.0" encoding="utf-8"?>
<!-- Generator: Adobe Illustrator 23.0.5, SVG Export Plug-In . SVG Version: 6.00 Build 0)  -->
<svg version="1.1" id="Layer_1" xmlns="http://www.w3.org/2000/svg" xmlns:xlink="http://www.w3.org/1999/xlink" x="0px" y="0px"
	 viewBox="0 0 25 25" style="enable-background:new 0 0 25 25;" xml:space="preserve">
<g>
	<polygon points="24.5,21.8 20.5,15 19.1,15.9 21.5,20.1 14.2,20.1 15.4,18.7 14.3,17.8 12.3,20.1 12.3,20.1 12.3,20.2 11.7,20.9 
		11.4,21.2 11.4,21.3 11.4,21.3 14.7,24.2 15.7,23.1 14.2,21.8 	"/>
	<polygon points="16.5,11.5 14.4,11.2 14.2,12.6 18.3,13.2 18.7,13.2 18.7,13.2 18.8,13.2 19.4,8.8 18,8.6 17.8,10.2 12.6,1.3 
		8.7,8.1 10.1,9 12.6,4.7 	"/>
	<polygon points="8.5,14.4 9.9,14 8.5,10.1 8.4,9.7 8.4,9.7 8.3,9.7 4.1,11.1 4.6,12.5 6.6,11.8 0.8,21.8 9,21.8 9,20.1 3.7,20.1 
		8,12.8 	"/>
</g>
</svg>
