<svg xmlns="http://www.w3.org/2000/svg" xml:space="preserve" style="enable-background:new 0 0 30 30" viewBox="0 0 30 30"><path d="M27.7 4.9c-1.3-1.3-3.1-2.1-5.1-2.1-1.9 0-3.7.7-5.1 2.1L15 7.4l-2.6-2.6c-1.3-1.3-3.1-2.1-5.1-2.1-1.9 0-3.7.7-5.1 2.1-2.8 2.8-2.8 7.3 0 10l3.6 3.6-3.5-.6-.3 1.8 5.8 1 .6.1 1.1-6.3-1.9-.4-.6 3.5-3.8-3.8C1 11.5 1 8 3.2 5.8c1.1-1.1 2.5-1.7 4-1.7s2.9.6 4 1.7L15 9.5l3.6-3.6c2.2-2.2 5.8-2.2 8 0s2.2 5.7 0 7.9L13.9 26.5l1.1 1.1 12.7-12.7c1.3-1.3 2.1-3.1 2.1-5s-.8-3.7-2.1-5z"/></svg>