<svg xmlns="http://www.w3.org/2000/svg" xml:space="preserve" style="enable-background:new 0 0 30 30" viewBox="0 0 30 30"><path d="M27.2 6.8C25 3.5 21.7 1.3 17.8.6 14-.2 10 .6 6.8 2.8 3.5 5 1.3 8.3.5 12.2c-1.6 8 3.7 15.7 11.6 17.3 1 .2 1.9.3 2.8.3 6.9 0 13.1-4.9 14.5-11.9.8-3.9 0-7.9-2.2-11.1zM12.5 28C5.3 26.6.6 19.6 2 12.5c.6-3.2 2.4-6 4.9-7.9l3.2 4.7c-.2.2-.4.4-.6.7-1.9 2-3 4.1-3.8 5.5 1.5-1 3.5-2.4 5.6-4.4l1.8 2.7-.5.5c-3.1 3.2-5.3 6.2-6.7 8.3 2.4-1.5 5.5-3.7 8.7-6.6l2.1 3.1c-.1.1-.2.3-.4.4-.8 1-2.9 3.3-2.6 3.6.2.2 2-.8 4-2.5l4 5.8c-2.6 1.6-5.9 2.3-9.2 1.6zM28 17.5c-.6 3.3-2.5 6.1-5 8l-4.1-6c.5-.5 1-1 1.4-1.5 1.7-1.9 2.7-3.8 3.4-5.2-1.6 1.1-3.7 2.8-5.9 5.1l-2-3c.6-.6 1.2-1.2 1.8-1.9 2.4-2.5 5.8-6.6 5.4-7-.4-.4-4.7 2.8-8.7 6.7L12.4 10l1.4-1.4c.9-1 3.2-3.5 2.8-3.8-.3-.3-2.9 1.2-5.4 3.5L8.1 3.7C11 2 14.3 1.4 17.5 2 21 2.7 24 4.7 26 7.6c2 2.9 2.7 6.5 2 9.9z"/></svg>