<svg xmlns="http://www.w3.org/2000/svg" xml:space="preserve" style="enable-background:new 0 0 30 30" viewBox="0 0 30 30"><path d="M22.2 2.4h-2.6c-.6 0-1 .5-1 1s.5 1 1 1h2.6c.6 0 1-.5 1-1s-.4-1-1-1zM10.4 2.4H7.8c-.6 0-1 .5-1 1s.5 1 1 1h2.6c.6 0 1-.5 1-1s-.4-1-1-1zM15 5.7c.6 0 1-.5 1-1V2.1c0-.6-.5-1-1-1s-1 .5-1 1v2.6c0 .6.4 1 1 1zM16.3 8.2h-2.6c-.6 0-1 .5-1 1s.5 1 1 1h2.6c.6 0 1-.5 1-1s-.4-1-1-1zM4.5 8.2H1.9c-.6 0-1 .5-1 1s.5 1 1 1h2.6c.6 0 1-.5 1-1s-.5-1-1-1zM10.1 10.5V7.9c0-.6-.5-1-1-1s-1 .5-1 1v2.6c0 .6.5 1 1 1s1-.5 1-1zM25.5 10.2h2.6c.6 0 1-.5 1-1s-.5-1-1-1h-2.6c-.6 0-1 .5-1 1s.5 1 1 1zM21.9 10.5V7.9c0-.6-.5-1-1-1s-1 .5-1 1v2.6c0 .6.5 1 1 1s1-.5 1-1zM16.3 19.8h-2.6c-.6 0-1 .5-1 1s.5 1 1 1h2.6c.6 0 1-.5 1-1s-.5-1-1-1zM4.5 19.8H1.9c-.6 0-1 .5-1 1s.5 1 1 1h2.6c.6 0 1-.5 1-1s-.5-1-1-1zM8 19.5v2.6c0 .6.5 1 1 1s1-.5 1-1v-2.6c0-.6-.5-1-1-1s-1 .4-1 1zM28.1 19.8h-2.6c-.6 0-1 .5-1 1s.5 1 1 1h2.6c.6 0 1-.5 1-1s-.4-1-1-1zM21.9 22.1v-2.6c0-.6-.5-1-1-1s-1 .5-1 1v2.6c0 .6.5 1 1 1s1-.5 1-1zM6.7 14.9c0 .6.5 1 1 1h2.6c.6 0 1-.5 1-1s-.5-1-1-1H7.8c-.6 0-1.1.4-1.1 1zM4.2 16.2v-2.6c0-.6-.5-1-1-1s-1 .5-1 1v2.6c0 .6.5 1 1 1s1-.4 1-1zM22.2 13.9h-2.6c-.6 0-1 .5-1 1s.5 1 1 1h2.6c.6 0 1-.5 1-1s-.4-1-1-1zM16 16.2v-2.6c0-.6-.5-1-1-1s-1 .5-1 1v2.6c0 .6.5 1 1 1s1-.4 1-1zM25.8 13.6v2.6c0 .6.5 1 1 1s1-.5 1-1v-2.6c0-.6-.5-1-1-1s-1 .4-1 1zM22.2 25.6h-2.6c-.6 0-1 .5-1 1s.5 1 1 1h2.6c.6 0 1-.5 1-1s-.4-1-1-1zM10.4 25.6H7.8c-.6 0-1 .5-1 1s.5 1 1 1h2.6c.6 0 1-.5 1-1s-.5-1-1-1zM15 24.3c-.6 0-1 .5-1 1v2.6c0 .6.5 1 1 1s1-.5 1-1v-2.6c0-.6-.5-1-1-1z"/></svg>