<svg xmlns="http://www.w3.org/2000/svg" xml:space="preserve" style="enable-background:new 0 0 30 30" viewBox="0 0 30 30"><path d="M-205.4-53.1c7.7 14.6 14.4 29.3 22 43.9 16.3 3 32.6 6.1 49 9.1-11.7 11.9-23.4 23.7-35 35.6 2.3 16.5 4.7 32.9 7 49.4-14.3-6.3-28.7-12.7-43-19" style="fill:#efefef;stroke:#efefef;stroke-linecap:round;stroke-linejoin:round;stroke-miterlimit:10"/><path d="M-250.8 65.9c-15.3 7-30.7 14-46 21 1.7-17.3 3.3-34.7 5-52-11.3-12-22.7-24-34-36 16.7-2.9 33.5-5.8 50.2-8.7 7.9-14.4 15.9-28.9 23.8-43.3" style="stroke:#000;stroke-linecap:round;stroke-linejoin:round;stroke-miterlimit:10"/><path d="m15.4 25 7.9 3.5c.2.1.4.1.6-.1.2-.1.3-.3.2-.6l-1.3-9.1 6.5-6.6c.2-.2.2-.4.1-.6-.1-.2-.2-.4-.5-.4l-9-1.7-4.2-8.1c-.1-.2-.3-.3-.5-.3" style="fill:#efefef"/><path d="M15.2 1.1c-.2 0-.4.1-.5.3l-4.4 8L1 11c-.2 0-.4.2-.5.4-.1.2 0 .4.1.6l6.3 6.7-.9 9.6c0 .2.1.4.3.5.1.1.2.1.4.1.1 0 .2 0 .3-.1l8.5-3.9"/></svg>