<?xml version="1.0" encoding="utf-8"?>
<!-- Generator: Adobe Illustrator 23.0.5, SVG Export Plug-In . SVG Version: 6.00 Build 0)  -->
<svg version="1.1" id="Layer_1" xmlns="http://www.w3.org/2000/svg" xmlns:xlink="http://www.w3.org/1999/xlink" x="0px" y="0px"
	 viewBox="0 0 30 30" style="enable-background:new 0 0 30 30;" xml:space="preserve">
<g>
	<polygon points="25.3,21.5 4.7,21.5 4.7,15.3 6.8,17.5 7.9,16.4 3.9,12.4 0,16.4 1,17.4 3.2,15.3 3.2,23 26.8,23 26.8,18.8 
		25.3,18.8 	"/>
	<polygon points="4.7,8.5 25.3,8.5 25.3,12.4 23.2,10.3 22.1,11.4 26.1,15.3 30,11.4 29,10.3 26.8,12.5 26.8,7 3.2,7 3.2,9.9 
		4.7,9.9 	"/>
	<polygon points="11.6,14.6 10.4,15.5 13.2,19.2 20.5,13.8 19.6,12.6 13.5,17.1 	"/>
</g>
</svg>
