<?xml version="1.0" encoding="utf-8"?>
<!-- Generator: Adobe Illustrator 23.0.5, SVG Export Plug-In . SVG Version: 6.00 Build 0)  -->
<svg version="1.1" id="Layer_1" xmlns="http://www.w3.org/2000/svg" xmlns:xlink="http://www.w3.org/1999/xlink" x="0px" y="0px"
	 viewBox="0 0 68 68.1" style="enable-background:new 0 0 68 68.1;" xml:space="preserve">
<style type="text/css">
	.st0{fill:#EFEFEF;}
	.st1{fill:#FFFFFF;}
</style>
<g>
	<path class="st0" d="M34,0.5C15.5,0.5,0.5,15.5,0.5,34s15,33.5,33.5,33.5c18.5,0,33.5-15,33.5-33.5S52.5,0.5,34,0.5z M34,17.4
		c7.2,0,13,5.8,13,13s-5.8,13-13,13s-13-5.8-13-13S26.8,17.4,34,17.4z M32.7,65.9c-11.6-0.4-19-7.3-20.7-9c0.6-1.4,1.6-3.4,3.4-5.3
		c4.2-4.2,9.6-4.6,11.1-4.6h14.9c1.6,0.1,6.9,0.5,11.1,4.6c1.8,1.8,2.8,3.6,3.4,5C54.6,58.1,46,66.4,32.7,65.9z"/>
	<path class="st1" d="M41.5,47H26.5c-1.5,0-6.9,0.4-11.1,4.6c-1.9,1.9-2.9,3.9-3.4,5.3c1.7,1.7,9.1,8.6,20.7,9
		C46,66.4,54.6,58.1,56,56.6c-0.6-1.4-1.6-3.3-3.4-5C48.4,47.5,43.1,47.1,41.5,47z"/>
	<circle class="st1" cx="34" cy="30.4" r="13"/>
</g>
</svg>
