<svg xmlns="http://www.w3.org/2000/svg" width="24" height="24" viewBox="0 0 24 24">
    <g fill="none" fill-rule="evenodd">
        <path fill-rule="nonzero" d="M0 0H24V24H0z"/>
        <g fill="#AE285D">
            <path d="M11.965.041c1.217 2.09 2.445 4.175 3.648 6.274-1.945 3.432-3.863 6.881-5.875 10.276-.771 1.303-1.522 2.618-2.285 3.925-2.474.015-4.949.015-7.423.011.075-.17.15-.34.241-.501C4.167 13.363 8.078 6.709 11.965.04zM11.966 12.787c2.483 0 4.966-.018 7.45.023 1.478 2.578 3.004 5.128 4.47 7.713-2.484.012-4.966.002-7.449 0-1.478-2.586-3.021-5.133-4.471-7.736z" transform="translate(0 2)"/>
        </g>
    </g>
</svg>
