<svg xmlns="http://www.w3.org/2000/svg" xml:space="preserve" style="enable-background:new 0 0 30 30" viewBox="0 0 30 30"><path d="M26.9 10.7c.6 1.7.8 3.2.8 4.5 0 7.1-5.8 12.9-12.9 12.9S1.9 22.4 1.9 15.3c0-7.1 5.8-12.9 12.9-12.9 1.3 0 2.6.2 3.9.6l.4-1.4c-1.5-.4-2.9-.7-4.4-.7C6.7.9.3 7.4.3 15.3c0 8 6.5 14.4 14.4 14.4s14.4-6.5 14.4-14.4c0-1.5-.3-3.2-.9-5l-1.3.4z"/><path d="M15.1 8c.7 0 1.4.1 2 .3l.5-1.4c-.8-.3-1.7-.4-2.5-.4-4.7 0-8.4 3.7-8.4 8.4s3.7 8.4 8.4 8.4 8.4-3.7 8.4-8.4c0-1.2-.2-2.2-.6-3.1l-1.4.6c.3.7.4 1.5.4 2.5 0 3.9-3 6.9-6.9 6.9s-6.9-3-6.9-6.9 3.1-6.9 7-6.9z"/><path d="M15.1 12.9c-1.1 0-2 .9-2 2s.9 2 2 2 2-.9 2-2c0-.2-.1-.5-.1-.7L29.7 1.4 28.6.3 15.9 13.1c-.2-.1-.5-.2-.8-.2z"/></svg>