<svg xmlns="http://www.w3.org/2000/svg" xml:space="preserve" style="enable-background:new 0 0 30 30" viewBox="0 0 30 30"><path d="M14.7 10.2c-1.6 0-3 1.3-3 3 0 1.6 1.3 3 3 3 1.6 0 3-1.3 3-3-.1-1.7-1.4-3-3-3zM14.9 7.9c.8 0 1.5-.7 1.5-1.5s-.7-1.5-1.5-1.5-1.5.7-1.5 1.5.7 1.5 1.5 1.5zM19.6 10c.8 0 1.5-.7 1.5-1.5S20.4 7 19.6 7s-1.5.7-1.5 1.5.7 1.5 1.5 1.5z"/><circle cx="10" cy="8.6" r=".9"/><path d="M7.9 12.3c-.6 0-1 .5-1 1 0 .6.5 1 1 1s1-.5 1-1-.4-1-1-1zM9.9 17c-.6 0-1.1.5-1.1 1.1 0 .6.5 1.1 1.1 1.1.6 0 1.1-.5 1.1-1.1 0-.6-.5-1.1-1.1-1.1zM14.7 19c-.7 0-1.2.5-1.2 1.2s.5 1.2 1.2 1.2 1.2-.5 1.2-1.2-.5-1.2-1.2-1.2zM19.6 16.9c-.7 0-1.3.6-1.3 1.3s.6 1.3 1.3 1.3c.7 0 1.3-.6 1.3-1.3s-.6-1.3-1.3-1.3zM21.6 12c-.7 0-1.3.6-1.3 1.3 0 .7.6 1.3 1.3 1.3.7 0 1.4-.6 1.4-1.3 0-.7-.6-1.3-1.4-1.3z"/><path d="m27.1 4.8-.1-.5-12-4-12 4-.1.5c-.4 3.1-.9 11 4.2 18 2.1 2.8 4.7 5.2 7.9 6.9l.1-.1.1.1c3.2-1.7 5.8-4 7.9-6.9 5-7.1 4.5-15 4-18zm-5.4 17.1c-1.7 2.5-4 4.5-6.7 6.1-2.7-1.6-5-3.6-6.7-6.1-4.5-6.3-4.4-13.3-4-16.5L15 1.9l10.7 3.5c.4 3.2.6 10.2-4 16.5z"/></svg>