<svg xmlns="http://www.w3.org/2000/svg" viewBox="0 0 25.2 25" style="enable-background:new 0 0 25.2 25" xml:space="preserve"><path style="fill:none;stroke:#000;stroke-width:1.7;stroke-miterlimit:10" d="M22.5 5.1z"/><path d="m3.4 12.2-.6-1.8H2l-.5 1.8-.5-1.8H.1l.8 2.9h1l.5-1.8.6 1.8h1l.8-2.9h-.9zM6.5 10.4c-.4 0-.9.1-1.3.4l.3.6c.2-.2.5-.3.8-.3.4 0 .6.2.6.4v.3c-.2-.2-.5-.3-.9-.3s-1 .2-1 .9c0 .6.5 1 1 1 .4 0 .7-.1.9-.4v.3h.9v-1.8c0-.9-.6-1.1-1.3-1.1zm.4 2.2c-.1.1-.3.2-.5.2s-.5-.1-.5-.3c0-.2.2-.3.5-.3.2 0 .4.1.5.2v.2zM9.5 10.4h-.9v2.9h.9v-1.8c.1-.2.4-.3.7-.3h.2v-.9c-.3 0-.7.2-.9.4v-.3zM11.8 10.4h-.9v2.9h.9v-1.8c.1-.2.4-.3.7-.3h.2v-.9c-.3 0-.7.2-.9.4v-.3zM14.5 10.4c-.4 0-.9.1-1.3.4l.3.6c.2-.2.5-.3.8-.3.4 0 .6.2.6.4v.3c-.2-.2-.5-.3-.9-.3s-1 .2-1 .9c0 .6.5 1 1 1 .4 0 .7-.1.9-.4v.3h.9v-1.8c0-.9-.6-1.1-1.3-1.1zm.4 2.2c-.1.1-.3.2-.5.2s-.5-.1-.5-.3c0-.2.2-.3.5-.3.2 0 .4.1.5.2v.2zM18.5 10.4c-.5 0-.8.2-1 .4v-.4h-.9v2.9h.9v-1.9c.1-.1.3-.3.6-.3s.5.1.5.5v1.7h.9v-2.1c-.1-.4-.4-.8-1-.8zM21.5 12.6c-.2 0-.2-.1-.2-.3v-1.1h.6v-.8h-.6v-.7h-.9v.8h-.5v.8h.5v1.3c0 .6.3.9.9.9.3 0 .6-.1.7-.2l-.2-.7h-.3zM24.3 10.4l-.6 1.8-.7-1.8h-1l1.1 2.9-.1.2c-.1.1-.2.2-.4.2-.1 0-.2 0-.2-.1l-.1.8h.4c.5 0 1-.2 1.2-.8l1.3-3.3h-.9z"/></svg>