<svg xmlns="http://www.w3.org/2000/svg" xml:space="preserve" style="enable-background:new 0 0 30 30" viewBox="0 0 30 30"><path d="M11.8 18.2c.9.5 1.8.7 2.8.7 3.3 0 6-2.7 6-5.9 0-3.1-4.8-10.3-5.4-11.1l-.5-.8-.5.8c-.6.8-5.5 8-5.5 11.1 0 1.3.4 2.6 1.2 3.6.5.6 1.1 1.2 1.9 1.6zM10 12.9c0-2 3-7 4.7-9.5C16.4 6 19.3 11 19.3 13c0 2.6-2.1 4.7-4.7 4.7-.8 0-1.5-.2-2.2-.6-.6-.3-1.1-.8-1.5-1.3-.6-.8-.9-1.8-.9-2.9z"/><path d="m16.4 27 7.4-5.7-.1 1.6 1.5.1.3-3.6v-.6l-4.1-.3-.2 1.5 1.7.1-7.1 5.5L6.6 19l-.8 1.2 9.3 6.8L1 26.9v1.5l28 .1V27z"/></svg>