<svg xmlns="http://www.w3.org/2000/svg" xml:space="preserve" style="enable-background:new 0 0 30 30" viewBox="0 0 30 30"><path d="M7.3 10H3.7l3.6-4.9v-1H2.1v1.1h3.6l-3.6 4.9v1h5.2zM13.3 10H9.7V8.1h3.5V7H9.7V5.2h3.6V4.1H8.5v7h4.8zM15.8 8.5H17l1.5 2.6H20l-1.7-2.7c.8-.1 1.7-.8 1.7-2 0-1.3-.9-2.2-2.3-2.2h-3.1v7h1.2V8.5zm0-3.3h1.7c.7 0 1.2.4 1.2 1.1 0 .7-.5 1.1-1.2 1.1h-1.7V5.2zM24.4 11.2c2.1 0 3.6-1.5 3.6-3.6S26.5 4 24.4 4s-3.6 1.5-3.6 3.6 1.5 3.6 3.6 3.6zm0-6.1c1.4 0 2.3 1.1 2.3 2.5s-.9 2.5-2.3 2.5-2.3-1.1-2.3-2.5c0-1.5.9-2.5 2.3-2.5zM8.5 21l-1 3.9-1-3.9h-.7l-1.1 3.9-1-3.9h-.9l1.4 5.1h.9l1-3.8 1 3.8H8L9.5 21zM11.2 21l-2 5h1l.4-1h2.3l.4 1h1l-2-5h-1.1zm-.4 3.3.9-2.4.9 2.4h-1.8zM15.5 22.4c0-.4.3-.6.8-.6s1.1.2 1.5.6l.5-.7c-.5-.5-1.1-.7-1.9-.7-1.1 0-1.8.6-1.8 1.5 0 1.8 2.9 1.2 2.9 2.2 0 .3-.3.7-1 .7s-1.3-.3-1.6-.7l-.5.7c.5.5 1.1.8 2.1.8 1.3 0 1.9-.7 1.9-1.6 0-1.9-2.9-1.3-2.9-2.2zM18.8 21.8h1.5v4.3h.9v-4.3h1.5V21h-3.9zM23.5 26.1h3.4v-.8h-2.5v-1.4h2.5v-.8h-2.5v-1.3h2.5V21h-3.4zM1.019 16.714l.007-1.5 28 .127-.007 1.5z"/></svg>