<?xml version="1.0" encoding="utf-8"?>
<!-- Generator: Adobe Illustrator 23.0.5, SVG Export Plug-In . SVG Version: 6.00 Build 0)  -->
<svg version="1.1" id="Layer_1" xmlns="http://www.w3.org/2000/svg" xmlns:xlink="http://www.w3.org/1999/xlink" x="0px" y="0px"
	 viewBox="0 0 30 30" style="enable-background:new 0 0 30 30;" xml:space="preserve">
<path d="M0.9,6.9v18.3h28.7V6.9H0.9z M27.9,16.8H14.8c1.6-0.8,2.2-1.3,2.5-1.9l0,0c0,0,0,0,0,0c0,0,0,0,0-0.1l0,0
	c0.2-0.5,0.4-1,0.4-1.5c0-1.7-1.4-3.1-3.1-3.1c-1,0-2,0.5-2.6,1.4l0,0c0,0,0,0,0,0c0,0,0,0,0,0l0,0c-0.1,0.2-0.3,0.5-0.4,0.8V8.6
	h16.2V16.8z M5.4,13.3c0-0.8,0.6-1.4,1.4-1.4c0.5,0,0.9,0.2,1.2,0.6c0.4,0.5,0.7,1.9,1,3.6c-2.5-1.2-3.3-1.7-3.4-2l-0.3,0.2L5.6,14
	C5.5,13.8,5.4,13.5,5.4,13.3z M16.2,14.2L15.9,14c-0.2,0.3-1,0.8-3.4,2.1c0.4-1.7,0.7-3.1,1-3.6c0.3-0.4,0.7-0.6,1.2-0.6
	c0.8,0,1.4,0.6,1.4,1.4c0,0.3-0.1,0.5-0.2,0.7L16.2,14.2z M10,8.6v4c-0.2-0.5-0.3-0.8-0.5-1.1l0,0c0,0,0,0,0,0c0,0,0,0,0,0l0,0
	c-0.6-0.9-1.5-1.4-2.6-1.4c-1.7,0-3.1,1.4-3.1,3.1c0,0.5,0.1,1,0.4,1.5l0,0c0,0,0,0,0,0.1c0,0,0,0,0,0l0,0c0.3,0.6,0.9,1.1,2.5,1.9
	H2.6V8.6H10z M2.6,18.5h5.3c-0.7,0.4-1.4,0.9-2,1.3l1,1.4c1-0.7,2.1-1.3,3.1-1.9v4.3H2.6V18.5z M11.7,23.5v-4.2c1,0.6,2.1,1.2,3,1.9
	l1-1.4c-0.7-0.5-1.3-0.9-2-1.3h14.3v5.1H11.7z"/>
</svg>
