<?xml version="1.0" encoding="utf-8"?>
<!-- Generator: Adobe Illustrator 23.0.5, SVG Export Plug-In . SVG Version: 6.00 Build 0)  -->
<svg version="1.1" id="Layer_1" xmlns="http://www.w3.org/2000/svg" xmlns:xlink="http://www.w3.org/1999/xlink" x="0px" y="0px"
	 viewBox="0 0 30 30" style="enable-background:new 0 0 30 30;" xml:space="preserve">
<g>
	<path d="M15,0.1C6.8,0.1,0.1,6.8,0.1,14.9c0,8.2,6.7,14.9,14.9,14.9s14.8-6.7,14.8-14.9C29.8,6.8,23.2,0.1,15,0.1z M15,28.1
		c-7.3,0-13.1-5.9-13.1-13.2C1.9,7.7,7.7,1.8,15,1.8s13.2,5.9,13.2,13.1C28.2,22.2,22.3,28.1,15,28.1z"/>
	<polygon points="17.1,6.3 8.6,15 17.1,23.6 18.4,22.4 11,15 18.4,7.5 	"/>
</g>
</svg>
