<?xml version="1.0" encoding="utf-8"?>
<!-- Generator: Adobe Illustrator 23.0.5, SVG Export Plug-In . SVG Version: 6.00 Build 0)  -->
<svg version="1.1" id="Layer_1" xmlns="http://www.w3.org/2000/svg" xmlns:xlink="http://www.w3.org/1999/xlink" x="0px" y="0px"
	 viewBox="0 0 30 30" style="enable-background:new 0 0 30 30;" xml:space="preserve">
<g>
	<path d="M9.4,28.4h1.7v-3.1h9.2v3.1H22V12.3H9.4V28.4z M11.1,23.6v-3.7h9.2v3.7H11.1z M20.3,14v4.2h-9.2V14H20.3z"/>
	<path d="M15.9,4.1l1.8-1.8l-1.1-1.1l-3.5,3.5L12.8,5l0,0l0,0l3.7,3.8l1.2-1.1l-1.9-1.8c5.6,0,10.2,4.8,10.2,10.6c0,0.3,0,0.5,0,0.8
		l1.7,0.1c0-0.3,0-0.6,0-0.9C27.8,9.7,22.5,4.2,15.9,4.1z"/>
	<path d="M10.8,6.6L10,5.1c-4.8,2.6-7.3,8.2-5.9,13.7l1.7-0.4C4.6,13.7,6.7,8.8,10.8,6.6z"/>
</g>
</svg>
