<?xml version="1.0" encoding="utf-8"?>
<!-- Generator: Adobe Illustrator 23.0.5, SVG Export Plug-In . SVG Version: 6.00 Build 0)  -->
<svg version="1.1" id="Layer_1" xmlns="http://www.w3.org/2000/svg" xmlns:xlink="http://www.w3.org/1999/xlink" x="0px" y="0px"
	 viewBox="0 0 30 30" style="enable-background:new 0 0 30 30;" xml:space="preserve">
<path d="M29.2,15.1l-3-1.4l-3.1-4.1l-4.3,0V6H0.5v16.7h4.1c0.4,1.4,1.6,2.4,3.1,2.4s2.7-1,3.1-2.4h7.3h0.8h0.7
	c0.4,1.4,1.6,2.4,3.1,2.4c1.5,0,2.7-1,3.1-2.4h3.4V15.1z M7.7,23.4c-0.8,0-1.5-0.7-1.5-1.5s0.7-1.5,1.5-1.5s1.5,0.7,1.5,1.5
	S8.6,23.4,7.7,23.4z M17.2,21h-6.4c-0.4-1.4-1.6-2.4-3.1-2.4S5,19.6,4.6,21H2.2V7.7h15V21z M22.7,23.4c-0.8,0-1.5-0.7-1.5-1.5
	s0.7-1.5,1.5-1.5s1.5,0.7,1.5,1.5S23.6,23.4,22.7,23.4z M27.5,21h-1.7c-0.4-1.4-1.6-2.4-3.1-2.4c-1.5,0-2.7,1-3.1,2.4h-0.7v-9.8
	l3.4,0l2.8,3.8l2.4,1.1V21z"/>
</svg>
