<?xml version="1.0" encoding="utf-8"?>
<!-- Generator: Adobe Illustrator 23.0.5, SVG Export Plug-In . SVG Version: 6.00 Build 0)  -->
<svg version="1.1" id="Layer_1" xmlns="http://www.w3.org/2000/svg" xmlns:xlink="http://www.w3.org/1999/xlink" x="0px" y="0px"
	 viewBox="0 0 30 30" style="enable-background:new 0 0 30 30;" xml:space="preserve">
<g>
	<path d="M16.6,15.7L17,14c-0.5-0.1-1.1-0.2-1.6-0.2l-5.3,0c-1.9,0.2-3.5,0.8-4.5,1.9c-1.6,1.7-1.7,3.9-1.9,7.7
		c-0.1,1.4-0.1,2.7,0,4.1l1.7-0.1c-0.1-1.3-0.1-2.6,0-3.9c0.2-3.8,0.3-5.5,1.4-6.6c0.8-0.8,1.9-1.3,3.3-1.4h5.2
		C15.8,15.5,16.2,15.6,16.6,15.7z"/>
	<path d="M14.7,10.8c2.8,0,5.1-2.3,5.1-5.1c0-2.8-2.3-5.1-5.1-5.1c-2.8,0-5.1,2.3-5.1,5.1C9.6,8.5,11.9,10.8,14.7,10.8z M14.7,2.2
		c1.9,0,3.4,1.5,3.4,3.4s-1.5,3.4-3.4,3.4c-1.9,0-3.4-1.5-3.4-3.4S12.8,2.2,14.7,2.2z"/>
	<path d="M24.2,11.8L10.7,25.2l4.5,4.5l13.4-13.4L24.2,11.8z M13.1,25.2l1.1-1.1l1.3,1.3l0.8-0.8L15,23.4l0.7-0.7l1.9,1.9l0.9-0.9
		l-1.9-1.9l0.6-0.6l1.3,1.3l0.8-0.8l-1.3-1.3l1-1l1.8,1.8l0.9-0.9l-1.8-1.8l1-1l1.3,1.3l0.8-0.8l-1.3-1.3l0.7-0.7l1.3,1.3l0.8-0.8
		l-1.3-1.3l1-1l2.1,2.1l-11,11L13.1,25.2z"/>
</g>
</svg>
