<?xml version="1.0" encoding="utf-8"?>
<!-- Generator: Adobe Illustrator 23.0.5, SVG Export Plug-In . SVG Version: 6.00 Build 0)  -->
<svg version="1.1" id="Layer_1" xmlns="http://www.w3.org/2000/svg" xmlns:xlink="http://www.w3.org/1999/xlink" x="0px" y="0px"
	 viewBox="0 0 25 25" style="enable-background:new 0 0 25 25;" xml:space="preserve">
<style type="text/css">
	.st0{stroke:#000000;stroke-miterlimit:10;}
</style>
<path class="st0" d="M33.3,5"/>
<path d="M18.6,0.8L0.8,18.6l5.6,5.6L24.2,6.4L18.6,0.8z M3.2,18.6l1.7-1.7l1.9,1.9l0.9-0.9l-1.9-1.9l1.1-1.1l2.6,2.6l1-1l-2.6-2.6
	l1-1l1.9,1.9l0.9-0.9l-1.9-1.9l1.6-1.6l2.6,2.6l1-1l-2.6-2.6l1.5-1.5l1.9,1.9l0.9-0.9l-1.9-1.9l1.1-1.1l1.9,1.9l0.9-0.9l-1.9-1.9
	l1.7-1.7l3.2,3.2L6.4,21.8L3.2,18.6z"/>
</svg>
