<?xml version="1.0" encoding="utf-8"?>
<!-- Generator: Adobe Illustrator 23.0.5, SVG Export Plug-In . SVG Version: 6.00 Build 0)  -->
<svg version="1.1" id="Layer_1" xmlns="http://www.w3.org/2000/svg" xmlns:xlink="http://www.w3.org/1999/xlink" x="0px" y="0px"
	 viewBox="0 0 25 25" style="enable-background:new 0 0 25 25;" xml:space="preserve">
<g>
	<path d="M10.7,10.5h-3V6.1H0.5v12.5h7.2v-4h3v9.2h1v-23h-1V10.5z M6.8,13.6v0.3H6.7v3.7H1.5V7.1h5.2v4.2h0.1v0.3h3.9v2.1H6.8z"/>
	<rect x="15.1" y="9.1" transform="matrix(0.9616 -0.2746 0.2746 0.9616 -2.7918 4.7575)" width="1" height="6.4"/>
	<rect x="19.5" y="9.1" transform="matrix(0.9615 -0.2747 0.2747 0.9615 -2.6227 5.9754)" width="1" height="6.4"/>
	<rect x="22.8" y="10.3" transform="matrix(0.9487 -0.3162 0.3162 0.9487 -2.7079 8.0134)" width="1" height="4.2"/>
</g>
</svg>
