<?xml version="1.0" encoding="utf-8"?>
<!-- Generator: Adobe Illustrator 23.0.5, SVG Export Plug-In . SVG Version: 6.00 Build 0)  -->
<svg version="1.1" id="Layer_1" xmlns="http://www.w3.org/2000/svg" xmlns:xlink="http://www.w3.org/1999/xlink" x="0px" y="0px"
	 viewBox="0 0 30 30" style="enable-background:new 0 0 30 30;" xml:space="preserve">
<path d="M29,11.4L19.2,10l-4.4-8.8L10.5,10l-9.8,1.4l7.1,6.9L6.1,28l8.7-4.6l8.7,4.6l-1.7-9.7L29,11.4z M15.6,22.1l-0.7-0.4
	l-0.7,0.4l-6,3.2l1.2-6.7l0.1-0.8l-0.6-0.6L4,12.4l6.8-1l0.8-0.1l0.3-0.7l3-6.1l3,6.1l0.3,0.7l0.8,0.1l6.8,1l-4.9,4.8l-0.6,0.6
	l0.1,0.8l1.2,6.7L15.6,22.1z"/>
</svg>
