<?xml version="1.0" encoding="utf-8"?>
<!-- Generator: Adobe Illustrator 23.0.5, SVG Export Plug-In . SVG Version: 6.00 Build 0)  -->
<svg version="1.1" id="Layer_1" xmlns="http://www.w3.org/2000/svg" xmlns:xlink="http://www.w3.org/1999/xlink" x="0px" y="0px"
	 viewBox="0 0 25 25" style="enable-background:new 0 0 25 25;" xml:space="preserve">
<style type="text/css">
	.st0{fill:none;stroke:#000000;stroke-width:1.7;stroke-miterlimit:10;}
</style>
<polygon class="st0" points="22.4,5.1 22.4,5.1 22.4,5.1 "/>
<path d="M23.1,4.5c-1.2-1.2-2.7-1.8-4.3-1.8c-1.6,0-3.2,0.6-4.3,1.8l-1.9,1.9l-1.9-1.9c-2.4-2.4-6.3-2.4-8.6,0
	c-2.4,2.4-2.4,6.2,0,8.6l2.6,2.6l-2.4-0.4l-0.3,1.6l4.8,0.9l0.5,0.1l0,0l0,0l0.9-5.2l-1.6-0.3l-0.4,2.6l-3-3C2.3,11,1.9,9.9,1.9,8.8
	s0.5-2.3,1.3-3.1C4.8,4,7.6,4,9.3,5.7l3.2,3.2l3.1-3.2c0.8-0.8,1.9-1.3,3.1-1.3c1.2,0,2.3,0.5,3.1,1.3c0.8,0.8,1.3,1.9,1.3,3.1
	s-0.5,2.3-1.3,3.1L11.3,22.4l1.2,1.2l10.6-10.6C25.4,10.7,25.4,6.9,23.1,4.5z"/>
</svg>
