<svg xmlns="http://www.w3.org/2000/svg" viewBox="0 0 213.7 215.5" style="enable-background:new 0 0 213.7 215.5" xml:space="preserve"><path d="M61.6 63.4v23.7H67V56.5h-4.7l-8.8 8.9 3.1 3.3zM84.4 87.6c8.6 0 12.2-8.1 12.2-15.8 0-7.7-3.6-15.7-12.2-15.7s-12.2 8.1-12.2 15.7c-.1 7.7 3.6 15.8 12.2 15.8zm0-26.8c5 0 6.7 5.1 6.7 11 0 5.8-1.8 11-6.7 11-5 0-6.8-5.2-6.8-11s1.8-11 6.8-11zM112.6 87.6c8.6 0 12.2-8.1 12.2-15.8 0-7.7-3.6-15.7-12.2-15.7s-12.2 8.1-12.2 15.7c0 7.7 3.6 15.8 12.2 15.8zm0-26.8c5 0 6.7 5.1 6.7 11 0 5.8-1.8 11-6.7 11-5 0-6.8-5.2-6.8-11s1.8-11 6.8-11zM135.6 71.2c4.6 0 7.6-3.3 7.6-7.6s-3-7.6-7.6-7.6c-4.5 0-7.6 3.3-7.6 7.6s3.1 7.6 7.6 7.6zm0-12.1c2.4 0 4.1 1.9 4.1 4.6 0 2.7-1.7 4.5-4.1 4.5-2.3 0-4-1.8-4-4.5s1.7-4.6 4-4.6zM135.7 87.1l19.5-30.6h-3.1l-19.5 30.6zM144.4 80.1c0 4.3 3.1 7.6 7.6 7.6s7.6-3.3 7.6-7.6-3.1-7.6-7.6-7.6-7.6 3.3-7.6 7.6zm11.7 0c0 2.7-1.7 4.5-4.1 4.5-2.4 0-4.1-1.8-4.1-4.5s1.7-4.6 4.1-4.6c2.4 0 4.1 1.9 4.1 4.6zM133.8 125.1l-8.6 4.8-5.9-9.6-21.1-1.1h-.4l-.3.1h-.1l-4.9 2.3-9.4 13.9 13.5 8.2c.1.2.3.4.4.5.3.2.6.3.8.3.3 0 .5-.1.8-.2.3-.1.5-.3.7-.6.1-.1.1-.3.2-.4l6.1-9 2.6 4.6-7.4 5.1 23.2 3.2 9.8-22.1zM97.7 141l-10.2-6.2 7.2-10.6 3.3-1.5 2.2 1.8 4 7.1-6.5 9.4zm11.4 1.2 3.3-2.2-9.8-17.4 15.1.8 6.5 10.7 3.3-1.9-5.2 12-13.2-2zM125.2 154.1c-.2 0-.4 0-.6.1-.5.3-.8.8-.8 1.4 0 .3 0 .6.2.9.1.1.2.3.3.4l4.8 9.8h-5.3l-.8-8.9-14.2 18.7 14.6 19.2v-9.8l11.2-.4 11.3-17.9.2-.3v-.4l.4-5.4-7.5-15.1-13.8 7.7zm7.7 28.4-12.5.5v3.8l-7.9-10.4 8.1-10.7.3 3.9h20l-8 12.9zm10.3-16.8-2.6 1h-8.2l-5.1-10.3 10.4-5.9 5.7 11.5-.2 3.7zM98.9 169.8c-.2-.2-.6-.3-.9-.3-.2 0-.3 0-.5.1l-10.8-.6 2.6-4.6 8.2 3.7-9.5-21.5-23.9 3.4 8.6 4.8-5.1 10 10.1 18.5.2.3.3.2h.1l4.5 3 16.8.8v-15.8c.1-.2.2-.4.2-.6-.1-.6-.4-1.1-.9-1.4zM71 164.7l5.7-11.1-3.3-1.9 12.9-1.9 5.4 12.3-3.6-1.6-9.9 17.5-7.2-13.3zm12.7 19.2-3-2 .4-2.8 4-7.2 11.5.6v12l-12.9-.6zM36.512 105.1l.013-3 140.7.607-.013 3z"/><path d="M106.9 2.4C48.7 2.4 1.5 49.6 1.5 107.8s47.3 105.4 105.4 105.4c58.1 0 105.4-47.3 105.4-105.4S165 2.4 106.9 2.4zm0 207.8c-56.5 0-102.4-45.9-102.4-102.4S50.4 5.4 106.9 5.4c56.5 0 102.4 45.9 102.4 102.4s-46 102.4-102.4 102.4z"/></svg>