<svg version="1.1" id="Layer_1" xmlns="http://www.w3.org/2000/svg" x="0" y="0" viewBox="0 0 25 25" style="enable-background:new 0 0 25 25" xml:space="preserve"><style>.st0{fill:#fff}</style><path d="M.3.3h24.5v24.5H.3z"/><path class="st0" d="M6.2 18.3v-8.2l-2.1 2.1-1.8-1.9 4.3-4.2h2.7v12.3H6.2zM11.7 16.8l1.7-2.2c.8.8 2 1.2 3.2 1.2 1.3 0 2-.7 2-1.4 0-.8-.6-1.4-1.9-1.4-1 0-1.7.3-2.4.9l-2.2-.5V6.1H21v2.8h-5.7v2.4c.6-.6 1.5-1 2.6-1 2.1 0 3.9 1.5 3.9 4 0 2.6-2 4.3-5.2 4.3-2.1-.1-3.7-.7-4.9-1.8z"/></svg>