<?xml version="1.0" encoding="utf-8"?>
<!-- Generator: Adobe Illustrator 23.0.5, SVG Export Plug-In . SVG Version: 6.00 Build 0)  -->
<svg version="1.1" id="Layer_1" xmlns="http://www.w3.org/2000/svg" xmlns:xlink="http://www.w3.org/1999/xlink" x="0px" y="0px"
	 viewBox="0 0 25 25" style="enable-background:new 0 0 25 25;" xml:space="preserve">
<style type="text/css">
	.st0{fill:#FFFFFF;}
</style>
<g>
	<path class="st0" d="M19.1,21.1h-14l-2.4-9.9h11.4c0-0.1,0-0.3,0-0.4c0-0.4,0.1-0.9,0.1-1.3H7.1l4.3-5.1h1.8l2.2,2.8
		c0.4-0.4,0.8-0.8,1.3-1.1L14,2.7h-3.4L4.9,9.5H0.5l3.2,13.3h16.7l1.7-7c-0.6,0.3-1.2,0.5-1.9,0.6L19.1,21.1z"/>
	<polygon class="st0" points="21.2,9.6 21.2,6.3 19.6,6.3 19.6,9.6 16.3,9.6 16.3,11.2 19.6,11.2 19.6,14.4 21.2,14.4 21.2,11.2 
		24.5,11.2 24.5,9.6 	"/>
</g>
</svg>
