<?xml version="1.0" encoding="utf-8"?>
<!-- Generator: Adobe Illustrator 23.0.5, SVG Export Plug-In . SVG Version: 6.00 Build 0)  -->
<svg version="1.1" id="Layer_1" xmlns="http://www.w3.org/2000/svg" xmlns:xlink="http://www.w3.org/1999/xlink" x="0px" y="0px"
	 viewBox="0 0 26 25" style="enable-background:new 0 0 26 25;" xml:space="preserve">
<path d="M22.8,3c-1.5-1.6-3.6-2.5-5.9-2.5H9.8c-4.6,0-8.4,3.9-8.4,8.7c0,1,0.1,4,2.3,6.1c1.1,1.1,2.3,1.6,3,1.8c0,0,1.1,0.4,4.2,1.1
	c0.3,0.1,0.5,0.1,0.6,0.1c0.2,0,0.3,0,0.4,0c0,0.1,0,0.2,0,0.3c0,0.1,0,0.3,0,0.3c0,0.3,0,0.5,0,0.7c0,0.3,0,0.4,0,1.9
	c0,0.9,0,0.9,0,1.1c0,0.3,0,0.6,0,0.9c0,0.1,0,0.2,0,0.4c0,0.1,0,0.3,0,0.3c0,0.2,0,0.3,0.1,0.4c0.1,0.1,0.4-0.1,1.5-1
	c0.7-0.5,0.7-0.6,0.9-0.7c0,0,1-0.7,1-0.7c0.7-0.5,1.2-0.9,1.7-1.2c1.3-0.9,1.9-1.4,2-1.5c1.2-0.9,2.6-2.1,3.4-3.1
	c0.7-0.8,2.9-3.4,2.8-7.2C25.3,8.3,25.1,5.4,22.8,3z M15.6,11.6H8.2c-0.4,0-0.8-0.4-0.8-0.8c0-0.4,0.4-0.8,0.8-0.8h7.3
	c0.4,0,0.8,0.4,0.8,0.8C16.4,11.1,16,11.6,15.6,11.6z M17.9,7.8H8.5c-0.6,0-1.1-0.5-1.1-1.1c0-0.6,0.5-1.1,1.1-1.1h9.4
	c0.6,0,1.1,0.5,1.1,1.1C19,7.4,18.5,7.8,17.9,7.8z"/>
</svg>
