<svg xmlns="http://www.w3.org/2000/svg" viewBox="0 0 25 25" style="enable-background:new 0 0 25 25" xml:space="preserve"><path d="M12.5.4C5.8.4.4 5.8.4 12.5s5.4 12.1 12.1 12.1 12.1-5.4 12.1-12.1S19.2.4 12.5.4zM2.1 12.5c0-5.7 4.7-10.4 10.4-10.4 2.6 0 4.9.9 6.7 2.5L4.6 19.3c-1.6-1.8-2.5-4.2-2.5-6.8zm10.4 10.4c-2.5 0-4.8-.9-6.7-2.4L20.4 5.7c1.6 1.8 2.5 4.2 2.5 6.8 0 5.7-4.7 10.4-10.4 10.4z"/><path d="M5.3 9.1c.5.2 1.1.7 1.6 1.5.6.9.6 1.9.6 2.4 0 .4.3.8.7.8.4 0 .7-.3.7-.7 0-.7 0-2-.8-3.2C7.5 8.7 6.6 8.1 6 7.8c-.4-.2-.8-.1-1 .3-.2.4-.1.8.3 1zM7.8 6.3c.2 0 .4-.1.5-.2.4-.4.9-.7 1.4-1 .6-.3 1.3-.5 1.9-.5.4 0 .7-.4.7-.8s-.4-.7-.8-.7c-.9.1-1.7.3-2.5.7-.5.3-1.1.7-1.7 1.2-.3.3-.3.8 0 1.1.1.1.3.2.5.2zM4.6 16.2c.2 0 .3-.1.5-.2.3-.3.4-.7.1-1.1-.2-.3-.5-.8-.6-1.4-.1-.8.1-1.4.3-1.7.2-.4 0-.8-.4-1-.4-.2-.8 0-1 .4-.3.6-.5 1.5-.4 2.6.1 1 .6 1.7.9 2.2.2.1.4.2.6.2zM11.6 7.5c-.1-.4-.5-.6-.9-.5-.4.1-.6.5-.5.9.2.5.4 1 .7 1.5.3.4.6.8 1 1.2.1.1.3.2.5.2s.4-.1.6-.3c.3-.3.2-.8-.1-1.1-.3-.2-.5-.5-.8-.9-.2-.2-.4-.6-.5-1zM14.3 7.9c.2 0 .5-.1.6-.3.4-.5.8-1 1.3-1.4.5-.4 1.1-.8 1.7-1 .4-.2.6-.6.4-1-.2-.4-.6-.6-1-.4-.7.3-1.4.7-2 1.2-.6.5-1.1 1.1-1.5 1.7-.2.3-.1.8.2 1 0 .2.2.2.3.2zM14 17.1c-1.1-.9-2.3-.7-2.7-.7-.4.1-.7.5-.6.9.1.4.5.7.9.6.1 0 .9-.1 1.4.3.5.4.7 1 .6 1.7-.1.4.2.8.6.9h.1c.3 0 .7-.2.7-.6.3-1.1-.1-2.3-1-3.1zM22.5 12c-.3-.6-.5-1.2-.7-1.8-.2-.6-.3-1.3-.3-1.9 0-.4-.4-.7-.8-.7s-.7.4-.7.8c0 .8.1 1.5.3 2.3.2.7.5 1.4.8 2.1.1.3.4.4.7.4.1 0 .2 0 .3-.1.5-.3.6-.8.4-1.1zM18.6 11.9c-.2-.3-.7-.4-1-.2-.7.5-1.3 1-1.8 1.7-.4.6-.8 1.2-1.1 1.8-.2.4 0 .8.4 1 .1 0 .2.1.3.1.3 0 .6-.2.7-.5.2-.5.5-1 .9-1.5s.9-1 1.5-1.4c.2-.2.3-.7.1-1zM21.1 14.2c-.4-.1-.8.1-.9.5-.2.6-.4 1.1-.8 1.6-.3.4-.6.9-.9 1.2-.3.3-.3.8.1 1.1.1.1.3.2.5.2s.4-.1.6-.2c.4-.5.8-1 1.1-1.5.4-.6.7-1.3.9-2 0-.3-.3-.8-.6-.9zM11.6 20.4c-.4.1-.7.1-1.1.1-.4 0-.8-.1-1.2-.2-.4-.1-.8.1-1 .5-.1.4.1.8.5 1 .5.2 1.1.3 1.6.3h.2c.5 0 .9-.1 1.4-.2.4-.1.6-.5.5-.9-.1-.5-.5-.7-.9-.6z"/></svg>