<svg xmlns="http://www.w3.org/2000/svg" viewBox="0 0 213.7 215.5" style="enable-background:new 0 0 213.7 215.5" xml:space="preserve"><path d="M107 2.4C48.9 2.4 1.6 49.7 1.6 107.8c0 58.1 47.3 105.4 105.4 105.4 58.1 0 105.4-47.3 105.4-105.4C212.4 49.7 165.1 2.4 107 2.4zm0 207.8c-56.5 0-102.4-45.9-102.4-102.4S50.5 5.4 107 5.4s102.4 45.9 102.4 102.4S163.5 210.2 107 210.2z"/><path d="M68.4 86.5H50.1l18-24.7v-4.9H42.2v5.4H60L42.2 86.9v5h26.2zM98.5 86.5H80.6v-9.7h17.5v-5.5H80.6v-9h17.9v-5.4h-24v35h24zM110.9 78.9h6.1l7.7 13.1h7.1l-8.6-13.7c4.3-.7 8.3-4.1 8.3-10.3 0-6.5-4.6-11-11.5-11h-15.4v35h6.1V78.9zm0-16.6h8.4c3.5 0 6 2.2 6 5.5 0 3.4-2.5 5.6-6 5.6h-8.4V62.3zM154.1 92.5c10.4 0 17.9-7.7 17.9-18.1 0-10.4-7.5-18.1-17.9-18.1-10.5 0-17.9 7.7-17.9 18.1 0 10.5 7.4 18.1 17.9 18.1zm0-30.7c7 0 11.6 5.4 11.6 12.6 0 7.2-4.6 12.6-11.6 12.6-7.1 0-11.6-5.5-11.6-12.6 0-7.2 4.6-12.6 11.6-12.6zM74.3 122.8l-4.9 19.4-5.3-19.4h-3.5l-5.2 19.4-4.9-19.4h-5l7.2 25.2h4.8l4.9-18.7 4.9 18.7H72l7.3-25.2zM87.8 122.8 77.9 148h5l1.9-4.9h11.6l1.9 4.9h5l-9.9-25.3h-5.6zM86 139.2l4.5-12 4.5 12h-9zM109.3 129.4c0-1.9 1.7-3.1 4.2-3.1 2.7 0 5.3.9 7.4 2.9l2.5-3.3c-2.3-2.3-5.5-3.6-9.4-3.6-5.6 0-9.2 3.2-9.2 7.4 0 9.3 14.7 6 14.7 11.3 0 1.7-1.4 3.5-5 3.5-3.5 0-6.3-1.7-8-3.5l-2.5 3.4c2.3 2.3 5.6 4 10.3 4 6.8 0 9.8-3.6 9.8-7.8-.1-9.4-14.8-6.4-14.8-11.2zM126.1 126.7h7.6V148h4.5v-21.3h7.6v-3.9h-19.7zM149.6 148h17.3v-3.9H154v-7h12.6v-3.9H154v-6.5h12.9v-3.9h-17.3zM36.72 108.195l.012-3 140.7.609-.013 3z"/></svg>