<svg xmlns="http://www.w3.org/2000/svg" viewBox="0 0 25 25" style="enable-background:new 0 0 25 25" xml:space="preserve"><path d="m18.1 15.3-.1 1.1 1.2.1.2-2.2v-.5l.1-.5-.9-.1h-.1l-2.1-.2-.2 1.3h.8l-4.3 3.3L6.2 13l-.8 1.1 7.3 5.3z"/><path d="m9.8 13.2 1.7 1.2-.8-1.9c-.1-.4-.2-.7-.2-1 0-.4.2-.7.5-1.2.2-.4.5-.8.8-1.5v-.1c.4.7.4 1.4.3 1.9l-.1 2 1-1.2v1.4l-.2 1.6 1.2-1.1c.3-.3 2.6-2.5 2-5.4-.2-.7-.5-1.4-1-2.1l-.8-1-.2.8c-.2-.9-.6-1.9-1.3-2.8-.3-.4-.7-.8-1.1-1.1l-1.4-1 .5 1.6c.1.2.1.4 0 .5 0 .3-.2.6-.3.7-.4.5-.8.9-1 1.2l-.2.4c-.5.6-.8 1-1.1 1.6-.2.3-.3.5-.4.8-.2.6-.4 1.9.2 3.3.4 1 1.1 1.8 1.9 2.4zm4.2-5c.2-.2.4-.4.6-.7.1.2.2.4.2.6.2 1.2-.2 2.2-.6 3-.1-.4-.1-.8-.3-1.2 0-.1-.1-.2-.1-.3l-.3-1 .5-.4zm-5.1-.4c.1-.1.1-.3.3-.6.2-.5.5-.8 1-1.3l.2-.2c.2-.3.6-.7 1-1.2.2-.2.3-.5.4-.9l.1.1C13 5 13.1 6.8 13 7.7v.5c-.1-.2-.2-.3-.3-.5-.2-.3-.4-.5-.6-.7l-.7-.7-.3 1c-.1.4-.2.7-.4 1-.2.6-.5 1-.7 1.3-.3.5-.5.9-.6 1.4-.1-.2-.3-.4-.4-.7-.4-1-.2-2-.1-2.5zM20.1 17.6h-3.6v1.6h2.9l2 2.4H3.6l2-2.4h2.9v-1.6H4.9L.2 23.2h24.7z"/></svg>