<svg xmlns="http://www.w3.org/2000/svg" viewBox="0 0 25 25" style="enable-background:new 0 0 25 25" xml:space="preserve"><path d="M9.5 10.5c.2-1 .3-2 .3-3.1 0-1.5-.1-4.7-2.3-6.4-.3-.2-2-1.4-3.8-.8-.5.3-1.3.7-1.9 1.6-.6 1-.8 2.2-.5 4.1C1.7 8 2.5 10 3.7 12l.3.5L9.4 11l.1-.5zm-1.6-.8-3.1.9C3.9 9 3.3 7.3 3 5.6c-.3-1.7 0-2.4.3-2.8.3-.4.6-.7 1-.9.2-.1.4-.1.5-.1.8 0 1.6.5 1.7.6C8 3.6 8.1 6.2 8.1 7.5c0 .7 0 1.5-.2 2.2zM10 12.8l-.4-.4L4.8 14v.6c0 .3.1 3.4 1.7 4.7.8.6 1.6.7 1.6.8h.5c.4 0 .9-.1 1.3-.3.6-.3 1.1-.8 1.5-1.5.6-1.3.2-2.5 0-3.2-.4-.8-.8-1.6-1.4-2.3zm-.2 4.9c-.1.1-.2.5-.6.7-.3.2-.7.1-.8.1 0 0-.4-.1-.8-.4-.7-.6-1-1.9-1.1-2.8l2.5-.9c.3.4.5.8.6 1.3.3.6.5 1.3.2 2zM22.8 7.3c-.2-.5-.7-1.7-1.9-2.2-.7-.3-1.3-.3-1.7-.2-.8.2-1.5.5-2.1 1-2.2 1.7-2.2 4.9-2.3 6.4 0 1 .1 2 .3 3l.1.5 5.2 1.5.3-.5c1.1-1.6 1.8-3.3 2.1-5.1.5-1.8.4-3.3 0-4.4zm-1.5 4c-.3 1.4-.8 2.7-1.6 4l-3-.9c-.1-.7-.2-1.4-.2-2.2 0-1.3.1-3.9 1.6-5.1.4-.3.9-.5 1.4-.6.1 0 .4 0 .7.1.5.2.8.8 1 1.3.3.8.4 2 .1 3.4zM14.8 17.6c-.6.7-1.1 1.5-1.3 2.3-.2.7-.6 1.9 0 3.2.3.7.8 1.2 1.4 1.5.4.2.8.3 1.2.3h.5c.1 0 .9-.1 1.6-.8 1.6-1.3 1.7-4.4 1.7-4.7v-.6l-4.8-1.6-.3.4zm3.4 2.4c-.1.9-.4 2.2-1.1 2.8-.4.3-.8.4-.8.4-.1 0-.4.1-.7-.1-.4-.2-.6-.6-.6-.7-.3-.7-.1-1.4.1-2 .1-.5.4-.9.6-1.3l2.5.9z"/></svg>