<?xml version="1.0" encoding="utf-8"?>
<!-- Generator: Adobe Illustrator 23.0.5, SVG Export Plug-In . SVG Version: 6.00 Build 0)  -->
<svg version="1.1" id="Layer_1" xmlns="http://www.w3.org/2000/svg" xmlns:xlink="http://www.w3.org/1999/xlink" x="0px" y="0px"
	 viewBox="0 0 25 25" style="enable-background:new 0 0 25 25;" xml:space="preserve">
<path d="M24.5,9.7c-0.1-0.2-0.2-0.3-0.4-0.3l-7.5-1.4l-3.5-6.7C13,1.1,12.8,1,12.7,1c-0.2,0-0.4,0.1-0.4,0.3L8.6,7.8L0.9,9.2
	c-0.2,0-0.3,0.2-0.4,0.3c-0.1,0.2,0,0.4,0.1,0.5l5.2,5.5l-0.8,8c0,0.2,0.1,0.4,0.2,0.5C5.4,24,5.5,24,5.6,24c0.1,0,0.1,0,0.2,0
	l7-3.2l6.6,2.9c0.2,0.1,0.4,0.1,0.5-0.1c0.1-0.1,0.2-0.3,0.2-0.5L19,15.6l5.3-5.4C24.5,10,24.5,9.8,24.5,9.7z"/>
</svg>
