<svg xmlns="http://www.w3.org/2000/svg" viewBox="0 0 21 21" style="enable-background:new 0 0 21 21" xml:space="preserve"><path d="M5.7 6.8 3.2 3.7C1.5 5.5.5 7.9.5 10.5c0 1.8.5 3.5 1.3 5L5 13c-.3-.8-.5-1.6-.5-2.5-.1-1.4.4-2.7 1.2-3.7z" style="fill:#fbbc05"/><path d="m3.2 3.7 2.5 3.1c1.1-1.4 2.8-2.3 4.8-2.3 1.4 0 2.7.5 3.7 1.2l3.1-2.5C15.5 1.5 13.1.5 10.5.5 7.6.5 5 1.7 3.2 3.7z" style="fill:#ea4335"/><path d="M13.3 15.9c-.8.4-1.8.7-2.8.7C8 16.6 5.9 15.1 5 13l-3.1 2.5c1.7 3 5 5 8.7 5 2 0 3.8-.6 5.3-1.5l-2.6-3.1z" style="fill:#34a853"/><path d="M20.3 8.5H10.5v4h5.8c-.5 1.5-1.6 2.7-3 3.4l2.5 3.1c2.3-1.4 3.9-3.7 4.5-6.5.1-.6.2-1.3.2-2s-.1-1.3-.2-2z" style="fill:#4285f4"/></svg>