<svg xmlns="http://www.w3.org/2000/svg" viewBox="0 0 25 25" style="enable-background:new 0 0 25 25" xml:space="preserve"><path d="m14.3 23.2 5.9-4.5-.1 1.1 1.4.1.3-3.2v-.5l-3.7-.3-.1 1.4 1.2.1-6 4.5-7.8-5.7-1 1.3 7.7 5.6H.3v1.7l24.5.1v-1.7z"/><path d="m9.9 15.8 1.8 1.3-.8-2.1c-.2-.5-.3-1-.2-1.4 0-.6.3-1 .7-1.7.3-.5.6-1.1 1-1.9.1-.1.1-.3.2-.4.6 1 .7 2.1.6 2.9l-.2 1.1 1-.4c.3-.1.6-.3.9-.6v.2c.2 1 .1 1.9-.1 2.4l-.6 1.9 1.6-1.2c.5-.4 2.9-2.3 3-5.6 0-2.1-1-3.7-1.6-4.4l-.9-1.1-.2 1.4c0 .1-.1.3-.1.5-.2-.9-.5-1.8-.9-2.6-.9-1.6-2.1-2.7-3-3.2L10.7 0l.3 1.6c.1.3.1.5.1.8-.1.5-.3.8-.4 1-.6.7-1 1.2-1.3 1.6l-.3.3c-.7.8-1.1 1.3-1.5 2-.1.4-.3.7-.4 1.1-.2.8-.4 2.4.3 4.3.6 1.7 1.8 2.7 2.4 3.1zM8.5 8.7c.1-.2.2-.5.3-.8.3-.6.6-1 1.3-1.8l.3-.3c.3-.4.8-.9 1.3-1.6.2-.3.5-.8.6-1.4.5.5 1.1 1.1 1.5 1.9.6 1.1.9 2.3.9 3.5v1.1l1-.6c.3-.2.6-.4.8-.7.1-.1.2-.2.2-.3.3.7.6 1.5.6 2.6 0 1.4-.6 2.5-1.2 3.3 0-.4-.1-.7-.2-1.1-.1-.5-.4-1.1-.6-1.5l-.7-1.2-.2 1.2c-.1-.7-.4-1.5-.9-2.2-.2-.3-.5-.7-.8-1l-.8-.7-.3 1c-.1.5-.3.9-.5 1.4-.3.7-.6 1.3-.9 1.7-.4.7-.8 1.3-.9 2.2-.3-.4-.5-.8-.7-1.3-.5-1.4-.3-2.7-.1-3.4z"/></svg>