<svg xmlns="http://www.w3.org/2000/svg" width="24" height="24" viewBox="0 0 24 26">
    <g fill="none" fill-rule="evenodd">
        <path fill-rule="nonzero" d="M0 0h24v24H0z"/>
        <path fill="#F06321" d="M6.809 5.585C12.653-.217 19.744-1.722 22.58 2.232c2.838 3.954.344 11.947-5.5 17.749-5.845 5.845-12.936 7.348-15.816 3.35-2.793-3.995-.299-11.946 5.544-17.746"/>
        <path fill="#AE282E" d="M10.677 2.49a21.358 21.358 0 0 0-1.933 1.634C3.63 9.194 1.479 16.155 4.016 19.637c2.62 3.48 8.895 2.191 14.138-2.923 2.838-2.75 4.728-5.93 5.501-8.895.215-2.191-.086-4.126-1.074-5.587-2.234-3.093-7.047-2.837-11.904.258"/>
        <path fill="#FFF" fill-rule="nonzero" d="M18.068 3.134v.129c-.042.73-.472 1.633-1.245 2.406-1.16 1.117-2.707 1.546-3.353.904-.73-.687-.299-2.193.86-3.396 1.204-1.16 2.75-1.546 3.395-.86a1.1 1.1 0 0 1 .343.817M13.601 22.86c-2.752 2.062-5.587 3.095-8.339 2.666 1.16.043 2.107-1.248 2.88-2.967.774-1.76 1.203-3.393 1.59-4.942.559-2.449.601-4.167.3-4.554-.472-.603-1.503-.472-2.708.215-.601.344-1.375.129-.47-.988.945-1.117 4.596-3.783 5.885-4.212 1.463-.387 3.095.172 2.537 1.761-.389 1.16-5.458 14.396-1.675 13.021"/>
    </g>
</svg>
