<svg xmlns="http://www.w3.org/2000/svg" viewBox="0 0 30 30" style="enable-background:new 0 0 30 30" xml:space="preserve"><path d="M16.6 15.7 17 14c-.5-.1-1.1-.2-1.6-.2h-5.3c-1.9.2-3.5.8-4.5 1.9-1.6 1.7-1.7 3.9-1.9 7.7-.1 1.4-.1 2.7 0 4.1l1.7-.1c-.1-1.3-.1-2.6 0-3.9.2-3.8.3-5.5 1.4-6.6.8-.8 1.9-1.3 3.3-1.4h5.2c.5 0 .9.1 1.3.2zM14.7 10.8c2.8 0 5.1-2.3 5.1-5.1S17.5.6 14.7.6 9.6 2.9 9.6 5.7s2.3 5.1 5.1 5.1zm0-8.6c1.9 0 3.4 1.5 3.4 3.4S16.6 9 14.7 9s-3.4-1.5-3.4-3.4 1.5-3.4 3.4-3.4zM24.2 11.8 10.7 25.2l4.5 4.5 13.4-13.4-4.4-4.5zM13.1 25.2l1.1-1.1 1.3 1.3.8-.8-1.3-1.2.7-.7 1.9 1.9.9-.9-1.9-1.9.6-.6 1.3 1.3.8-.8-1.3-1.3 1-1 1.8 1.8.9-.9-1.8-1.8 1-1 1.3 1.3.8-.8-1.3-1.3.7-.7 1.3 1.3.8-.8-1.3-1.3 1-1 2.1 2.1-11 11-2.2-2.1z"/></svg>