<svg xmlns="http://www.w3.org/2000/svg" viewBox="0 0 25 25" style="enable-background:new 0 0 25 25" xml:space="preserve"><path d="M3.6 2.7C1.4 5 .2 8 .2 11.1c0 3 1.1 5.9 3.1 8.2l1.1-1c-1.8-2-2.8-4.5-2.8-7.2 0-2.8 1.1-5.4 3-7.4l-1-1zM21.4 2.6l-1.1 1c1.9 2 3 4.6 3 7.4 0 2.7-1 5.3-2.8 7.2l1.1 1c2.1-2.3 3.2-5.2 3.2-8.2-.1-3.1-1.2-6.1-3.4-8.4zM7.9 6.9c-1.1 1.2-1.7 2.7-1.7 4.2 0 1.4.5 2.8 1.3 3.9l1.2-.9c-.7-.8-1-1.9-1-2.9C7.7 10 8.1 8.9 9 8L7.9 6.9zM16 7.9c.8.9 1.3 2 1.3 3.2 0 1.1-.4 2.1-1 2.9l1.2.9c.9-1.1 1.3-2.5 1.3-3.9 0-1.6-.6-3.1-1.7-4.2L16 7.9z"/><path d="M12.7 9.2c-1 0-1.8.8-1.8 1.8s.8 1.8 1.8 1.8 1.7-.8 1.7-1.8-.7-1.8-1.7-1.8z" style="fill:#ee1c4e"/></svg>