<svg xmlns="http://www.w3.org/2000/svg" viewBox="0 0 25 25" style="enable-background:new 0 0 25 25" xml:space="preserve"><path d="M9.1 14.2c-.4.4-1 .9-1.4 1.7-.7 1.1-1 2.3-1.1 3.7H16.9c-.1-1.4-.4-2.7-1.1-3.7-.5-.8-1-1.3-1.4-1.7-.6-.5-.9-.9-1-1.5 0-.6.4-1 .9-1.5.4-.4.8-.8 1.3-1.5.8-1.2 1.2-2.6 1.3-4.2H6.6c.1 1.6.5 3 1.3 4.2.4.7.9 1.1 1.3 1.5.5.5.9.9.9 1.5s-.4.9-1 1.5zM9 8.7h5.4l-2.5 2.9.1 4.1 2.9 1.3.2 1H8.3l.2-1 2.9-1.3.1-4.1L9 8.7z"/><path d="m24.3 14.9-1.3.8c.3-1 .5-2.1.5-3.2C23.5 6.1 18.3.8 11.8.8 5.3.8 0 6.1 0 12.5s5.2 11.7 11.7 11.7c.9 0 1.7-.1 2.5-.3l-.3-1.5c-.7.2-1.5.2-2.2.2-5.6 0-10.1-4.5-10.1-10.1S6.1 2.4 11.7 2.4s10.1 4.5 10.1 10.1c0 1-.2 2-.5 3l-1-1.7-1.3.7 2.2 3.8 3.7-2.1-.6-1.3z"/></svg>