<svg xmlns="http://www.w3.org/2000/svg" viewBox="0 0 25 25" style="enable-background:new 0 0 25 25" xml:space="preserve"><path d="M8.4 10.9h9.3l1.9-7.1H17L14.2.3H12L9.1 3.8H6.5l1.9 7.1zM12.9 2h.5l1.4 1.8h-3.5L12.9 2zm4.5 3.5-1 3.7H9.7l-1-3.7h8.7zM24.4 16.8c-.5-1.2-1.7-1.8-3-1.6l-3.5.8c-.3-.9-1-1.5-1.9-1.8l-7.6-1-.2.1c-.6.3-1.2.6-1.9.9-.3.1-.6.3-.9.4-.7.1-1.4.1-2.2-.1-.5-.1-1-.3-1.5-.6l-.8 1.5c.6.3 1.3.6 2 .8.9.2 1.9.2 2.9.1l.2-.1c.3-.1.7-.3 1.1-.4.6-.3 1.2-.5 1.7-.8l6.9.9c.4.1.7.5.7 1 0 .4-.3.8-.8 1-.8.1-1.7.1-2.5.1-.7 0-1.4-.1-2-.1l-.2 1.7c.7.1 1.4.1 2.2.1h.6c.7 0 1.4 0 2.1-.1h.1c.9-.2 1.7-.9 2-1.7l3.9-.9c.5-.1.9.2 1.1.6.2.4 0 .9-.3 1.2L14 22.9l-8.6-3.2L1 21.3l.6 1.6 3.9-1.4 8.7 3.2 9.2-4.7.1-.1c1-.6 1.4-2 .9-3.1z"/></svg>