<svg xmlns="http://www.w3.org/2000/svg" viewBox="0 0 25 25" style="enable-background:new 0 0 25 25" xml:space="preserve"><path style="fill:none;stroke:#000;stroke-width:1.7;stroke-miterlimit:10" d="M22.4 5.1z"/><path d="M23.1 4.5c-1.2-1.2-2.7-1.8-4.3-1.8-1.6 0-3.2.6-4.3 1.8l-1.9 1.9-1.9-1.9c-2.4-2.4-6.3-2.4-8.6 0-2.4 2.4-2.4 6.2 0 8.6l2.6 2.6-2.4-.4-.3 1.6 4.8.9.5.1.9-5.2-1.6-.3-.4 2.6-3-3c-.9-1-1.3-2.1-1.3-3.2s.5-2.3 1.3-3.1C4.8 4 7.6 4 9.3 5.7l3.2 3.2 3.1-3.2c.8-.8 1.9-1.3 3.1-1.3 1.2 0 2.3.5 3.1 1.3.8.8 1.3 1.9 1.3 3.1s-.5 2.3-1.3 3.1L11.3 22.4l1.2 1.2L23.1 13c2.3-2.3 2.3-6.1 0-8.5z"/></svg>