<svg xmlns="http://www.w3.org/2000/svg" viewBox="0 0 25 25" style="enable-background:new 0 0 25 25" xml:space="preserve"><path d="M14.9.4c-3.2-.6-6.5 0-9.3 1.9C2.9 4.1 1 6.9.4 10.1c-.6 3.2 0 6.5 1.9 9.3 1.8 2.7 4.6 4.6 7.9 5.2.8.2 1.6.2 2.4.2 5.8 0 11-4.1 12.1-10C25.9 8.2 21.6 1.7 14.9.4zM10.5 23c-2.8-.5-5.2-2.1-6.8-4.5-1.6-2.4-2.2-5.2-1.6-8C2.5 8 3.8 5.8 5.8 4.2L8.3 8c-.1.1-.2.2-.3.4-1.5 1.7-2.5 3.3-3.1 4.5 1.2-.8 2.8-1.9 4.4-3.5l1.5 2.2c-.1.1-.2.2-.2.3-2.5 2.6-4.3 5.1-5.5 6.8 2-1.2 4.4-3 6.9-5.3l1.7 2.5-.1.1c-.7.8-2.4 2.7-2.1 3 .2.2 1.5-.6 3.1-1.9l3.1 4.6C15.6 23 13 23.5 10.5 23zM23 14.5c-.5 2.6-1.9 4.7-3.8 6.3L15.9 16c.3-.3.7-.7 1-1.1 1.4-1.6 2.3-3.1 2.8-4.3-1.3.9-3 2.2-4.7 4l-1.7-2.4c.4-.4.9-.9 1.3-1.4 2-2.1 4.7-5.4 4.4-5.8-.3-.3-3.7 2.2-7 5.4l-1.5-2.2c.3-.3.6-.7 1-1 .8-.8 2.6-2.9 2.3-3.2-.2-.2-2.2 1-4.2 2.8L7.2 3.3C9.4 2 12 1.6 14.5 2.1c5.8 1.1 9.6 6.7 8.5 12.4z"/></svg>