<svg xmlns="http://www.w3.org/2000/svg" viewBox="0 0 25 25" style="enable-background:new 0 0 25 25" xml:space="preserve"><path d="M17.7 2.9h-1.9c-.5 0-.9.4-.9.9s.4.9.9.9h1.9c.5 0 .9-.4.9-.9s-.4-.9-.9-.9zM9.1 2.9H7.3c-.5 0-.9.4-.9.9s.4.9.9.9h1.9c.5 0 .9-.4.9-.9s-.5-.9-1-.9zM12.5 5.6c.5 0 .9-.4.9-.9V2.9c0-.5-.4-.9-.9-.9s-.9.4-.9.9v1.9c0 .4.4.8.9.8zM13.4 7.1h-1.9c-.5 0-.9.4-.9.9s.4.9.9.9h1.9c.5 0 .9-.4.9-.9s-.4-.9-.9-.9zM4.9 7.1H3c-.5 0-.9.4-.9.9s.4.9.9.9h1.9c.5 0 .9-.4.9-.9s-.5-.9-.9-.9zM9.1 8.9V7.1c0-.5-.4-.9-.9-.9s-.9.4-.9.9V9c0 .5.4.9.9.9s.9-.5.9-1zM20.1 8.9H22c.5 0 .9-.4.9-.9s-.4-.9-.9-.9h-1.9c-.5 0-.9.4-.9.9s.5.9.9.9zM17.7 8.9V7.1c0-.5-.4-.9-.9-.9s-.9.4-.9.9V9c0 .5.4.9.9.9s.9-.5.9-1zM13.4 15.5h-1.9c-.5 0-.9.4-.9.9s.4.9.9.9h1.9c.5 0 .9-.4.9-.9s-.4-.9-.9-.9zM4.9 15.5H3c-.5 0-.9.4-.9.9s.4.9.9.9h1.9c.5 0 .9-.4.9-.9s-.5-.9-.9-.9zM7.3 15.5v1.9c0 .5.4.9.9.9s.9-.4.9-.9v-1.9c0-.5-.4-.9-.9-.9s-.9.4-.9.9zM22 15.5h-1.9c-.5 0-.9.4-.9.9s.4.9.9.9H22c.5 0 .9-.4.9-.9s-.4-.9-.9-.9zM17.7 17.4v-1.9c0-.5-.4-.9-.9-.9s-.9.4-.9.9v1.9c0 .5.4.9.9.9s.9-.4.9-.9zM6.4 12.2c0 .5.4.9.9.9h1.9c.5 0 .9-.4.9-.9s-.4-.9-.9-.9H7.3c-.5 0-.9.4-.9.9zM4.8 13.1v-1.9c0-.5-.4-.9-.9-.9s-.9.4-.9.9v1.9c0 .5.4.9.9.9s.9-.4.9-.9zM17.7 11.3h-1.9c-.5 0-.9.4-.9.9s.4.9.9.9h1.9c.5 0 .9-.4.9-.9s-.4-.9-.9-.9zM13.4 13.1v-1.9c0-.5-.4-.9-.9-.9s-.9.4-.9.9v1.9c0 .5.4.9.9.9s.9-.4.9-.9zM20.2 11.2v1.9c0 .5.4.9.9.9s.9-.4.9-.9v-1.9c0-.5-.4-.9-.9-.9s-.9.4-.9.9zM17.7 19.8h-1.9c-.5 0-.9.4-.9.9s.4.9.9.9h1.9c.5 0 .9-.4.9-.9s-.4-.9-.9-.9zM9.1 19.8H7.3c-.5 0-.9.4-.9.9s.4.9.9.9h1.9c.5 0 .9-.4.9-.9s-.5-.9-1-.9zM12.5 18.8c-.5 0-.9.4-.9.9v1.9c0 .5.4.9.9.9s.9-.4.9-.9v-1.9c0-.5-.4-.9-.9-.9z"/></svg>