<?xml version="1.0" encoding="utf-8"?>
<!-- Generator: Adobe Illustrator 23.0.5, SVG Export Plug-In . SVG Version: 6.00 Build 0)  -->
<svg version="1.1" id="Layer_1" xmlns="http://www.w3.org/2000/svg" xmlns:xlink="http://www.w3.org/1999/xlink" x="0px" y="0px"
	 viewBox="0 0 25 25" style="enable-background:new 0 0 25 25;" xml:space="preserve">
<style type="text/css">
	.st0{fill:none;stroke:#000000;stroke-width:2;}
</style>
<path class="st0" d="M22.6,8.9c0.4,1.2,0.7,2.5,0.7,3.8c0,6-4.9,10.9-10.9,10.9S1.5,18.7,1.5,12.7S6.4,1.8,12.4,1.8
	c1.2,0,2.3,0.2,3.3,0.5"/>
<path class="st0" d="M18.3,10.2c0.3,0.7,0.4,1.4,0.4,2.2c0,3.4-2.7,6.1-6.1,6.1s-6.1-2.7-6.1-6.1s2.7-6.1,6.1-6.1
	c0.6,0,1.2,0.1,1.8,0.3"/>
<line class="st0" x1="12.7" y1="12.4" x2="23.8" y2="1.2"/>
<circle class="st0" cx="12.6" cy="12.4" r="1"/>
</svg>
